%TF.GenerationSoftware,KiCad,Pcbnew,8.0.5*%
%TF.CreationDate,2025-09-15T10:24:37+05:30*%
%TF.ProjectId,design_buck_converter,64657369-676e-45f6-9275-636b5f636f6e,rev?*%
%TF.SameCoordinates,Original*%
%TF.FileFunction,Soldermask,Top*%
%TF.FilePolarity,Negative*%
%FSLAX46Y46*%
G04 Gerber Fmt 4.6, Leading zero omitted, Abs format (unit mm)*
G04 Created by KiCad (PCBNEW 8.0.5) date 2025-09-15 10:24:37*
%MOMM*%
%LPD*%
G01*
G04 APERTURE LIST*
G04 Aperture macros list*
%AMRoundRect*
0 Rectangle with rounded corners*
0 $1 Rounding radius*
0 $2 $3 $4 $5 $6 $7 $8 $9 X,Y pos of 4 corners*
0 Add a 4 corners polygon primitive as box body*
4,1,4,$2,$3,$4,$5,$6,$7,$8,$9,$2,$3,0*
0 Add four circle primitives for the rounded corners*
1,1,$1+$1,$2,$3*
1,1,$1+$1,$4,$5*
1,1,$1+$1,$6,$7*
1,1,$1+$1,$8,$9*
0 Add four rect primitives between the rounded corners*
20,1,$1+$1,$2,$3,$4,$5,0*
20,1,$1+$1,$4,$5,$6,$7,0*
20,1,$1+$1,$6,$7,$8,$9,0*
20,1,$1+$1,$8,$9,$2,$3,0*%
G04 Aperture macros list end*
%ADD10C,0.010000*%
%ADD11RoundRect,0.100000X-0.100000X0.130000X-0.100000X-0.130000X0.100000X-0.130000X0.100000X0.130000X0*%
%ADD12RoundRect,0.100000X0.100000X-0.130000X0.100000X0.130000X-0.100000X0.130000X-0.100000X-0.130000X0*%
%ADD13R,1.700000X1.700000*%
%ADD14O,1.700000X1.700000*%
%ADD15RoundRect,0.250000X1.100000X-0.325000X1.100000X0.325000X-1.100000X0.325000X-1.100000X-0.325000X0*%
%ADD16R,1.900000X1.400000*%
%ADD17RoundRect,0.100000X0.130000X0.100000X-0.130000X0.100000X-0.130000X-0.100000X0.130000X-0.100000X0*%
G04 APERTURE END LIST*
D10*
%TO.C,IC*%
X187833000Y-77236000D02*
X187839000Y-77236000D01*
X187845000Y-77238000D01*
X187851000Y-77239000D01*
X187857000Y-77241000D01*
X187863000Y-77243000D01*
X187869000Y-77245000D01*
X187874000Y-77248000D01*
X187880000Y-77251000D01*
X187885000Y-77254000D01*
X187891000Y-77258000D01*
X187896000Y-77262000D01*
X187900000Y-77266000D01*
X187905000Y-77270000D01*
X187909000Y-77275000D01*
X187913000Y-77279000D01*
X187917000Y-77284000D01*
X187921000Y-77290000D01*
X187924000Y-77295000D01*
X187927000Y-77301000D01*
X187930000Y-77306000D01*
X187932000Y-77312000D01*
X187934000Y-77318000D01*
X187936000Y-77324000D01*
X187937000Y-77330000D01*
X187939000Y-77336000D01*
X187939000Y-77342000D01*
X187940000Y-77349000D01*
X187940000Y-77355000D01*
X187940000Y-77865000D01*
X187940000Y-77871000D01*
X187939000Y-77878000D01*
X187939000Y-77884000D01*
X187937000Y-77890000D01*
X187936000Y-77896000D01*
X187934000Y-77902000D01*
X187932000Y-77908000D01*
X187930000Y-77914000D01*
X187927000Y-77919000D01*
X187924000Y-77925000D01*
X187921000Y-77930000D01*
X187917000Y-77936000D01*
X187913000Y-77941000D01*
X187909000Y-77945000D01*
X187905000Y-77950000D01*
X187900000Y-77954000D01*
X187896000Y-77958000D01*
X187891000Y-77962000D01*
X187885000Y-77966000D01*
X187880000Y-77969000D01*
X187874000Y-77972000D01*
X187869000Y-77975000D01*
X187863000Y-77977000D01*
X187857000Y-77979000D01*
X187851000Y-77981000D01*
X187845000Y-77982000D01*
X187839000Y-77984000D01*
X187833000Y-77984000D01*
X187826000Y-77985000D01*
X187820000Y-77985000D01*
X187680000Y-77985000D01*
X187674000Y-77985000D01*
X187667000Y-77984000D01*
X187661000Y-77984000D01*
X187655000Y-77982000D01*
X187649000Y-77981000D01*
X187643000Y-77979000D01*
X187637000Y-77977000D01*
X187631000Y-77975000D01*
X187626000Y-77972000D01*
X187620000Y-77969000D01*
X187615000Y-77966000D01*
X187609000Y-77962000D01*
X187604000Y-77958000D01*
X187600000Y-77954000D01*
X187595000Y-77950000D01*
X187591000Y-77945000D01*
X187587000Y-77941000D01*
X187583000Y-77936000D01*
X187579000Y-77930000D01*
X187576000Y-77925000D01*
X187573000Y-77919000D01*
X187570000Y-77914000D01*
X187568000Y-77908000D01*
X187566000Y-77902000D01*
X187564000Y-77896000D01*
X187563000Y-77890000D01*
X187561000Y-77884000D01*
X187561000Y-77878000D01*
X187560000Y-77871000D01*
X187560000Y-77865000D01*
X187560000Y-77355000D01*
X187560000Y-77349000D01*
X187561000Y-77342000D01*
X187561000Y-77336000D01*
X187563000Y-77330000D01*
X187564000Y-77324000D01*
X187566000Y-77318000D01*
X187568000Y-77312000D01*
X187570000Y-77306000D01*
X187573000Y-77301000D01*
X187576000Y-77295000D01*
X187579000Y-77290000D01*
X187583000Y-77284000D01*
X187587000Y-77279000D01*
X187591000Y-77275000D01*
X187595000Y-77270000D01*
X187600000Y-77266000D01*
X187604000Y-77262000D01*
X187609000Y-77258000D01*
X187615000Y-77254000D01*
X187620000Y-77251000D01*
X187626000Y-77248000D01*
X187631000Y-77245000D01*
X187637000Y-77243000D01*
X187643000Y-77241000D01*
X187649000Y-77239000D01*
X187655000Y-77238000D01*
X187661000Y-77236000D01*
X187667000Y-77236000D01*
X187674000Y-77235000D01*
X187680000Y-77235000D01*
X187820000Y-77235000D01*
X187826000Y-77235000D01*
X187833000Y-77236000D01*
G36*
X187833000Y-77236000D02*
G01*
X187839000Y-77236000D01*
X187845000Y-77238000D01*
X187851000Y-77239000D01*
X187857000Y-77241000D01*
X187863000Y-77243000D01*
X187869000Y-77245000D01*
X187874000Y-77248000D01*
X187880000Y-77251000D01*
X187885000Y-77254000D01*
X187891000Y-77258000D01*
X187896000Y-77262000D01*
X187900000Y-77266000D01*
X187905000Y-77270000D01*
X187909000Y-77275000D01*
X187913000Y-77279000D01*
X187917000Y-77284000D01*
X187921000Y-77290000D01*
X187924000Y-77295000D01*
X187927000Y-77301000D01*
X187930000Y-77306000D01*
X187932000Y-77312000D01*
X187934000Y-77318000D01*
X187936000Y-77324000D01*
X187937000Y-77330000D01*
X187939000Y-77336000D01*
X187939000Y-77342000D01*
X187940000Y-77349000D01*
X187940000Y-77355000D01*
X187940000Y-77865000D01*
X187940000Y-77871000D01*
X187939000Y-77878000D01*
X187939000Y-77884000D01*
X187937000Y-77890000D01*
X187936000Y-77896000D01*
X187934000Y-77902000D01*
X187932000Y-77908000D01*
X187930000Y-77914000D01*
X187927000Y-77919000D01*
X187924000Y-77925000D01*
X187921000Y-77930000D01*
X187917000Y-77936000D01*
X187913000Y-77941000D01*
X187909000Y-77945000D01*
X187905000Y-77950000D01*
X187900000Y-77954000D01*
X187896000Y-77958000D01*
X187891000Y-77962000D01*
X187885000Y-77966000D01*
X187880000Y-77969000D01*
X187874000Y-77972000D01*
X187869000Y-77975000D01*
X187863000Y-77977000D01*
X187857000Y-77979000D01*
X187851000Y-77981000D01*
X187845000Y-77982000D01*
X187839000Y-77984000D01*
X187833000Y-77984000D01*
X187826000Y-77985000D01*
X187820000Y-77985000D01*
X187680000Y-77985000D01*
X187674000Y-77985000D01*
X187667000Y-77984000D01*
X187661000Y-77984000D01*
X187655000Y-77982000D01*
X187649000Y-77981000D01*
X187643000Y-77979000D01*
X187637000Y-77977000D01*
X187631000Y-77975000D01*
X187626000Y-77972000D01*
X187620000Y-77969000D01*
X187615000Y-77966000D01*
X187609000Y-77962000D01*
X187604000Y-77958000D01*
X187600000Y-77954000D01*
X187595000Y-77950000D01*
X187591000Y-77945000D01*
X187587000Y-77941000D01*
X187583000Y-77936000D01*
X187579000Y-77930000D01*
X187576000Y-77925000D01*
X187573000Y-77919000D01*
X187570000Y-77914000D01*
X187568000Y-77908000D01*
X187566000Y-77902000D01*
X187564000Y-77896000D01*
X187563000Y-77890000D01*
X187561000Y-77884000D01*
X187561000Y-77878000D01*
X187560000Y-77871000D01*
X187560000Y-77865000D01*
X187560000Y-77355000D01*
X187560000Y-77349000D01*
X187561000Y-77342000D01*
X187561000Y-77336000D01*
X187563000Y-77330000D01*
X187564000Y-77324000D01*
X187566000Y-77318000D01*
X187568000Y-77312000D01*
X187570000Y-77306000D01*
X187573000Y-77301000D01*
X187576000Y-77295000D01*
X187579000Y-77290000D01*
X187583000Y-77284000D01*
X187587000Y-77279000D01*
X187591000Y-77275000D01*
X187595000Y-77270000D01*
X187600000Y-77266000D01*
X187604000Y-77262000D01*
X187609000Y-77258000D01*
X187615000Y-77254000D01*
X187620000Y-77251000D01*
X187626000Y-77248000D01*
X187631000Y-77245000D01*
X187637000Y-77243000D01*
X187643000Y-77241000D01*
X187649000Y-77239000D01*
X187655000Y-77238000D01*
X187661000Y-77236000D01*
X187667000Y-77236000D01*
X187674000Y-77235000D01*
X187680000Y-77235000D01*
X187820000Y-77235000D01*
X187826000Y-77235000D01*
X187833000Y-77236000D01*
G37*
X187833000Y-80016000D02*
X187839000Y-80016000D01*
X187845000Y-80018000D01*
X187851000Y-80019000D01*
X187857000Y-80021000D01*
X187863000Y-80023000D01*
X187869000Y-80025000D01*
X187874000Y-80028000D01*
X187880000Y-80031000D01*
X187885000Y-80034000D01*
X187891000Y-80038000D01*
X187896000Y-80042000D01*
X187900000Y-80046000D01*
X187905000Y-80050000D01*
X187909000Y-80055000D01*
X187913000Y-80059000D01*
X187917000Y-80064000D01*
X187921000Y-80070000D01*
X187924000Y-80075000D01*
X187927000Y-80081000D01*
X187930000Y-80086000D01*
X187932000Y-80092000D01*
X187934000Y-80098000D01*
X187936000Y-80104000D01*
X187937000Y-80110000D01*
X187939000Y-80116000D01*
X187939000Y-80122000D01*
X187940000Y-80129000D01*
X187940000Y-80135000D01*
X187940000Y-80645000D01*
X187940000Y-80651000D01*
X187939000Y-80658000D01*
X187939000Y-80664000D01*
X187937000Y-80670000D01*
X187936000Y-80676000D01*
X187934000Y-80682000D01*
X187932000Y-80688000D01*
X187930000Y-80694000D01*
X187927000Y-80699000D01*
X187924000Y-80705000D01*
X187921000Y-80710000D01*
X187917000Y-80716000D01*
X187913000Y-80721000D01*
X187909000Y-80725000D01*
X187905000Y-80730000D01*
X187900000Y-80734000D01*
X187896000Y-80738000D01*
X187891000Y-80742000D01*
X187885000Y-80746000D01*
X187880000Y-80749000D01*
X187874000Y-80752000D01*
X187869000Y-80755000D01*
X187863000Y-80757000D01*
X187857000Y-80759000D01*
X187851000Y-80761000D01*
X187845000Y-80762000D01*
X187839000Y-80764000D01*
X187833000Y-80764000D01*
X187826000Y-80765000D01*
X187820000Y-80765000D01*
X187680000Y-80765000D01*
X187674000Y-80765000D01*
X187667000Y-80764000D01*
X187661000Y-80764000D01*
X187655000Y-80762000D01*
X187649000Y-80761000D01*
X187643000Y-80759000D01*
X187637000Y-80757000D01*
X187631000Y-80755000D01*
X187626000Y-80752000D01*
X187620000Y-80749000D01*
X187615000Y-80746000D01*
X187609000Y-80742000D01*
X187604000Y-80738000D01*
X187600000Y-80734000D01*
X187595000Y-80730000D01*
X187591000Y-80725000D01*
X187587000Y-80721000D01*
X187583000Y-80716000D01*
X187579000Y-80710000D01*
X187576000Y-80705000D01*
X187573000Y-80699000D01*
X187570000Y-80694000D01*
X187568000Y-80688000D01*
X187566000Y-80682000D01*
X187564000Y-80676000D01*
X187563000Y-80670000D01*
X187561000Y-80664000D01*
X187561000Y-80658000D01*
X187560000Y-80651000D01*
X187560000Y-80645000D01*
X187560000Y-80135000D01*
X187560000Y-80129000D01*
X187561000Y-80122000D01*
X187561000Y-80116000D01*
X187563000Y-80110000D01*
X187564000Y-80104000D01*
X187566000Y-80098000D01*
X187568000Y-80092000D01*
X187570000Y-80086000D01*
X187573000Y-80081000D01*
X187576000Y-80075000D01*
X187579000Y-80070000D01*
X187583000Y-80064000D01*
X187587000Y-80059000D01*
X187591000Y-80055000D01*
X187595000Y-80050000D01*
X187600000Y-80046000D01*
X187604000Y-80042000D01*
X187609000Y-80038000D01*
X187615000Y-80034000D01*
X187620000Y-80031000D01*
X187626000Y-80028000D01*
X187631000Y-80025000D01*
X187637000Y-80023000D01*
X187643000Y-80021000D01*
X187649000Y-80019000D01*
X187655000Y-80018000D01*
X187661000Y-80016000D01*
X187667000Y-80016000D01*
X187674000Y-80015000D01*
X187680000Y-80015000D01*
X187820000Y-80015000D01*
X187826000Y-80015000D01*
X187833000Y-80016000D01*
G36*
X187833000Y-80016000D02*
G01*
X187839000Y-80016000D01*
X187845000Y-80018000D01*
X187851000Y-80019000D01*
X187857000Y-80021000D01*
X187863000Y-80023000D01*
X187869000Y-80025000D01*
X187874000Y-80028000D01*
X187880000Y-80031000D01*
X187885000Y-80034000D01*
X187891000Y-80038000D01*
X187896000Y-80042000D01*
X187900000Y-80046000D01*
X187905000Y-80050000D01*
X187909000Y-80055000D01*
X187913000Y-80059000D01*
X187917000Y-80064000D01*
X187921000Y-80070000D01*
X187924000Y-80075000D01*
X187927000Y-80081000D01*
X187930000Y-80086000D01*
X187932000Y-80092000D01*
X187934000Y-80098000D01*
X187936000Y-80104000D01*
X187937000Y-80110000D01*
X187939000Y-80116000D01*
X187939000Y-80122000D01*
X187940000Y-80129000D01*
X187940000Y-80135000D01*
X187940000Y-80645000D01*
X187940000Y-80651000D01*
X187939000Y-80658000D01*
X187939000Y-80664000D01*
X187937000Y-80670000D01*
X187936000Y-80676000D01*
X187934000Y-80682000D01*
X187932000Y-80688000D01*
X187930000Y-80694000D01*
X187927000Y-80699000D01*
X187924000Y-80705000D01*
X187921000Y-80710000D01*
X187917000Y-80716000D01*
X187913000Y-80721000D01*
X187909000Y-80725000D01*
X187905000Y-80730000D01*
X187900000Y-80734000D01*
X187896000Y-80738000D01*
X187891000Y-80742000D01*
X187885000Y-80746000D01*
X187880000Y-80749000D01*
X187874000Y-80752000D01*
X187869000Y-80755000D01*
X187863000Y-80757000D01*
X187857000Y-80759000D01*
X187851000Y-80761000D01*
X187845000Y-80762000D01*
X187839000Y-80764000D01*
X187833000Y-80764000D01*
X187826000Y-80765000D01*
X187820000Y-80765000D01*
X187680000Y-80765000D01*
X187674000Y-80765000D01*
X187667000Y-80764000D01*
X187661000Y-80764000D01*
X187655000Y-80762000D01*
X187649000Y-80761000D01*
X187643000Y-80759000D01*
X187637000Y-80757000D01*
X187631000Y-80755000D01*
X187626000Y-80752000D01*
X187620000Y-80749000D01*
X187615000Y-80746000D01*
X187609000Y-80742000D01*
X187604000Y-80738000D01*
X187600000Y-80734000D01*
X187595000Y-80730000D01*
X187591000Y-80725000D01*
X187587000Y-80721000D01*
X187583000Y-80716000D01*
X187579000Y-80710000D01*
X187576000Y-80705000D01*
X187573000Y-80699000D01*
X187570000Y-80694000D01*
X187568000Y-80688000D01*
X187566000Y-80682000D01*
X187564000Y-80676000D01*
X187563000Y-80670000D01*
X187561000Y-80664000D01*
X187561000Y-80658000D01*
X187560000Y-80651000D01*
X187560000Y-80645000D01*
X187560000Y-80135000D01*
X187560000Y-80129000D01*
X187561000Y-80122000D01*
X187561000Y-80116000D01*
X187563000Y-80110000D01*
X187564000Y-80104000D01*
X187566000Y-80098000D01*
X187568000Y-80092000D01*
X187570000Y-80086000D01*
X187573000Y-80081000D01*
X187576000Y-80075000D01*
X187579000Y-80070000D01*
X187583000Y-80064000D01*
X187587000Y-80059000D01*
X187591000Y-80055000D01*
X187595000Y-80050000D01*
X187600000Y-80046000D01*
X187604000Y-80042000D01*
X187609000Y-80038000D01*
X187615000Y-80034000D01*
X187620000Y-80031000D01*
X187626000Y-80028000D01*
X187631000Y-80025000D01*
X187637000Y-80023000D01*
X187643000Y-80021000D01*
X187649000Y-80019000D01*
X187655000Y-80018000D01*
X187661000Y-80016000D01*
X187667000Y-80016000D01*
X187674000Y-80015000D01*
X187680000Y-80015000D01*
X187820000Y-80015000D01*
X187826000Y-80015000D01*
X187833000Y-80016000D01*
G37*
X188333000Y-77236000D02*
X188339000Y-77236000D01*
X188345000Y-77238000D01*
X188351000Y-77239000D01*
X188357000Y-77241000D01*
X188363000Y-77243000D01*
X188369000Y-77245000D01*
X188374000Y-77248000D01*
X188380000Y-77251000D01*
X188385000Y-77254000D01*
X188391000Y-77258000D01*
X188396000Y-77262000D01*
X188400000Y-77266000D01*
X188405000Y-77270000D01*
X188409000Y-77275000D01*
X188413000Y-77279000D01*
X188417000Y-77284000D01*
X188421000Y-77290000D01*
X188424000Y-77295000D01*
X188427000Y-77301000D01*
X188430000Y-77306000D01*
X188432000Y-77312000D01*
X188434000Y-77318000D01*
X188436000Y-77324000D01*
X188437000Y-77330000D01*
X188439000Y-77336000D01*
X188439000Y-77342000D01*
X188440000Y-77349000D01*
X188440000Y-77355000D01*
X188440000Y-77865000D01*
X188440000Y-77871000D01*
X188439000Y-77878000D01*
X188439000Y-77884000D01*
X188437000Y-77890000D01*
X188436000Y-77896000D01*
X188434000Y-77902000D01*
X188432000Y-77908000D01*
X188430000Y-77914000D01*
X188427000Y-77919000D01*
X188424000Y-77925000D01*
X188421000Y-77930000D01*
X188417000Y-77936000D01*
X188413000Y-77941000D01*
X188409000Y-77945000D01*
X188405000Y-77950000D01*
X188400000Y-77954000D01*
X188396000Y-77958000D01*
X188391000Y-77962000D01*
X188385000Y-77966000D01*
X188380000Y-77969000D01*
X188374000Y-77972000D01*
X188369000Y-77975000D01*
X188363000Y-77977000D01*
X188357000Y-77979000D01*
X188351000Y-77981000D01*
X188345000Y-77982000D01*
X188339000Y-77984000D01*
X188333000Y-77984000D01*
X188326000Y-77985000D01*
X188320000Y-77985000D01*
X188180000Y-77985000D01*
X188174000Y-77985000D01*
X188167000Y-77984000D01*
X188161000Y-77984000D01*
X188155000Y-77982000D01*
X188149000Y-77981000D01*
X188143000Y-77979000D01*
X188137000Y-77977000D01*
X188131000Y-77975000D01*
X188126000Y-77972000D01*
X188120000Y-77969000D01*
X188115000Y-77966000D01*
X188109000Y-77962000D01*
X188104000Y-77958000D01*
X188100000Y-77954000D01*
X188095000Y-77950000D01*
X188091000Y-77945000D01*
X188087000Y-77941000D01*
X188083000Y-77936000D01*
X188079000Y-77930000D01*
X188076000Y-77925000D01*
X188073000Y-77919000D01*
X188070000Y-77914000D01*
X188068000Y-77908000D01*
X188066000Y-77902000D01*
X188064000Y-77896000D01*
X188063000Y-77890000D01*
X188061000Y-77884000D01*
X188061000Y-77878000D01*
X188060000Y-77871000D01*
X188060000Y-77865000D01*
X188060000Y-77355000D01*
X188060000Y-77349000D01*
X188061000Y-77342000D01*
X188061000Y-77336000D01*
X188063000Y-77330000D01*
X188064000Y-77324000D01*
X188066000Y-77318000D01*
X188068000Y-77312000D01*
X188070000Y-77306000D01*
X188073000Y-77301000D01*
X188076000Y-77295000D01*
X188079000Y-77290000D01*
X188083000Y-77284000D01*
X188087000Y-77279000D01*
X188091000Y-77275000D01*
X188095000Y-77270000D01*
X188100000Y-77266000D01*
X188104000Y-77262000D01*
X188109000Y-77258000D01*
X188115000Y-77254000D01*
X188120000Y-77251000D01*
X188126000Y-77248000D01*
X188131000Y-77245000D01*
X188137000Y-77243000D01*
X188143000Y-77241000D01*
X188149000Y-77239000D01*
X188155000Y-77238000D01*
X188161000Y-77236000D01*
X188167000Y-77236000D01*
X188174000Y-77235000D01*
X188180000Y-77235000D01*
X188320000Y-77235000D01*
X188326000Y-77235000D01*
X188333000Y-77236000D01*
G36*
X188333000Y-77236000D02*
G01*
X188339000Y-77236000D01*
X188345000Y-77238000D01*
X188351000Y-77239000D01*
X188357000Y-77241000D01*
X188363000Y-77243000D01*
X188369000Y-77245000D01*
X188374000Y-77248000D01*
X188380000Y-77251000D01*
X188385000Y-77254000D01*
X188391000Y-77258000D01*
X188396000Y-77262000D01*
X188400000Y-77266000D01*
X188405000Y-77270000D01*
X188409000Y-77275000D01*
X188413000Y-77279000D01*
X188417000Y-77284000D01*
X188421000Y-77290000D01*
X188424000Y-77295000D01*
X188427000Y-77301000D01*
X188430000Y-77306000D01*
X188432000Y-77312000D01*
X188434000Y-77318000D01*
X188436000Y-77324000D01*
X188437000Y-77330000D01*
X188439000Y-77336000D01*
X188439000Y-77342000D01*
X188440000Y-77349000D01*
X188440000Y-77355000D01*
X188440000Y-77865000D01*
X188440000Y-77871000D01*
X188439000Y-77878000D01*
X188439000Y-77884000D01*
X188437000Y-77890000D01*
X188436000Y-77896000D01*
X188434000Y-77902000D01*
X188432000Y-77908000D01*
X188430000Y-77914000D01*
X188427000Y-77919000D01*
X188424000Y-77925000D01*
X188421000Y-77930000D01*
X188417000Y-77936000D01*
X188413000Y-77941000D01*
X188409000Y-77945000D01*
X188405000Y-77950000D01*
X188400000Y-77954000D01*
X188396000Y-77958000D01*
X188391000Y-77962000D01*
X188385000Y-77966000D01*
X188380000Y-77969000D01*
X188374000Y-77972000D01*
X188369000Y-77975000D01*
X188363000Y-77977000D01*
X188357000Y-77979000D01*
X188351000Y-77981000D01*
X188345000Y-77982000D01*
X188339000Y-77984000D01*
X188333000Y-77984000D01*
X188326000Y-77985000D01*
X188320000Y-77985000D01*
X188180000Y-77985000D01*
X188174000Y-77985000D01*
X188167000Y-77984000D01*
X188161000Y-77984000D01*
X188155000Y-77982000D01*
X188149000Y-77981000D01*
X188143000Y-77979000D01*
X188137000Y-77977000D01*
X188131000Y-77975000D01*
X188126000Y-77972000D01*
X188120000Y-77969000D01*
X188115000Y-77966000D01*
X188109000Y-77962000D01*
X188104000Y-77958000D01*
X188100000Y-77954000D01*
X188095000Y-77950000D01*
X188091000Y-77945000D01*
X188087000Y-77941000D01*
X188083000Y-77936000D01*
X188079000Y-77930000D01*
X188076000Y-77925000D01*
X188073000Y-77919000D01*
X188070000Y-77914000D01*
X188068000Y-77908000D01*
X188066000Y-77902000D01*
X188064000Y-77896000D01*
X188063000Y-77890000D01*
X188061000Y-77884000D01*
X188061000Y-77878000D01*
X188060000Y-77871000D01*
X188060000Y-77865000D01*
X188060000Y-77355000D01*
X188060000Y-77349000D01*
X188061000Y-77342000D01*
X188061000Y-77336000D01*
X188063000Y-77330000D01*
X188064000Y-77324000D01*
X188066000Y-77318000D01*
X188068000Y-77312000D01*
X188070000Y-77306000D01*
X188073000Y-77301000D01*
X188076000Y-77295000D01*
X188079000Y-77290000D01*
X188083000Y-77284000D01*
X188087000Y-77279000D01*
X188091000Y-77275000D01*
X188095000Y-77270000D01*
X188100000Y-77266000D01*
X188104000Y-77262000D01*
X188109000Y-77258000D01*
X188115000Y-77254000D01*
X188120000Y-77251000D01*
X188126000Y-77248000D01*
X188131000Y-77245000D01*
X188137000Y-77243000D01*
X188143000Y-77241000D01*
X188149000Y-77239000D01*
X188155000Y-77238000D01*
X188161000Y-77236000D01*
X188167000Y-77236000D01*
X188174000Y-77235000D01*
X188180000Y-77235000D01*
X188320000Y-77235000D01*
X188326000Y-77235000D01*
X188333000Y-77236000D01*
G37*
X188333000Y-80016000D02*
X188339000Y-80016000D01*
X188345000Y-80018000D01*
X188351000Y-80019000D01*
X188357000Y-80021000D01*
X188363000Y-80023000D01*
X188369000Y-80025000D01*
X188374000Y-80028000D01*
X188380000Y-80031000D01*
X188385000Y-80034000D01*
X188391000Y-80038000D01*
X188396000Y-80042000D01*
X188400000Y-80046000D01*
X188405000Y-80050000D01*
X188409000Y-80055000D01*
X188413000Y-80059000D01*
X188417000Y-80064000D01*
X188421000Y-80070000D01*
X188424000Y-80075000D01*
X188427000Y-80081000D01*
X188430000Y-80086000D01*
X188432000Y-80092000D01*
X188434000Y-80098000D01*
X188436000Y-80104000D01*
X188437000Y-80110000D01*
X188439000Y-80116000D01*
X188439000Y-80122000D01*
X188440000Y-80129000D01*
X188440000Y-80135000D01*
X188440000Y-80645000D01*
X188440000Y-80651000D01*
X188439000Y-80658000D01*
X188439000Y-80664000D01*
X188437000Y-80670000D01*
X188436000Y-80676000D01*
X188434000Y-80682000D01*
X188432000Y-80688000D01*
X188430000Y-80694000D01*
X188427000Y-80699000D01*
X188424000Y-80705000D01*
X188421000Y-80710000D01*
X188417000Y-80716000D01*
X188413000Y-80721000D01*
X188409000Y-80725000D01*
X188405000Y-80730000D01*
X188400000Y-80734000D01*
X188396000Y-80738000D01*
X188391000Y-80742000D01*
X188385000Y-80746000D01*
X188380000Y-80749000D01*
X188374000Y-80752000D01*
X188369000Y-80755000D01*
X188363000Y-80757000D01*
X188357000Y-80759000D01*
X188351000Y-80761000D01*
X188345000Y-80762000D01*
X188339000Y-80764000D01*
X188333000Y-80764000D01*
X188326000Y-80765000D01*
X188320000Y-80765000D01*
X188180000Y-80765000D01*
X188174000Y-80765000D01*
X188167000Y-80764000D01*
X188161000Y-80764000D01*
X188155000Y-80762000D01*
X188149000Y-80761000D01*
X188143000Y-80759000D01*
X188137000Y-80757000D01*
X188131000Y-80755000D01*
X188126000Y-80752000D01*
X188120000Y-80749000D01*
X188115000Y-80746000D01*
X188109000Y-80742000D01*
X188104000Y-80738000D01*
X188100000Y-80734000D01*
X188095000Y-80730000D01*
X188091000Y-80725000D01*
X188087000Y-80721000D01*
X188083000Y-80716000D01*
X188079000Y-80710000D01*
X188076000Y-80705000D01*
X188073000Y-80699000D01*
X188070000Y-80694000D01*
X188068000Y-80688000D01*
X188066000Y-80682000D01*
X188064000Y-80676000D01*
X188063000Y-80670000D01*
X188061000Y-80664000D01*
X188061000Y-80658000D01*
X188060000Y-80651000D01*
X188060000Y-80645000D01*
X188060000Y-80135000D01*
X188060000Y-80129000D01*
X188061000Y-80122000D01*
X188061000Y-80116000D01*
X188063000Y-80110000D01*
X188064000Y-80104000D01*
X188066000Y-80098000D01*
X188068000Y-80092000D01*
X188070000Y-80086000D01*
X188073000Y-80081000D01*
X188076000Y-80075000D01*
X188079000Y-80070000D01*
X188083000Y-80064000D01*
X188087000Y-80059000D01*
X188091000Y-80055000D01*
X188095000Y-80050000D01*
X188100000Y-80046000D01*
X188104000Y-80042000D01*
X188109000Y-80038000D01*
X188115000Y-80034000D01*
X188120000Y-80031000D01*
X188126000Y-80028000D01*
X188131000Y-80025000D01*
X188137000Y-80023000D01*
X188143000Y-80021000D01*
X188149000Y-80019000D01*
X188155000Y-80018000D01*
X188161000Y-80016000D01*
X188167000Y-80016000D01*
X188174000Y-80015000D01*
X188180000Y-80015000D01*
X188320000Y-80015000D01*
X188326000Y-80015000D01*
X188333000Y-80016000D01*
G36*
X188333000Y-80016000D02*
G01*
X188339000Y-80016000D01*
X188345000Y-80018000D01*
X188351000Y-80019000D01*
X188357000Y-80021000D01*
X188363000Y-80023000D01*
X188369000Y-80025000D01*
X188374000Y-80028000D01*
X188380000Y-80031000D01*
X188385000Y-80034000D01*
X188391000Y-80038000D01*
X188396000Y-80042000D01*
X188400000Y-80046000D01*
X188405000Y-80050000D01*
X188409000Y-80055000D01*
X188413000Y-80059000D01*
X188417000Y-80064000D01*
X188421000Y-80070000D01*
X188424000Y-80075000D01*
X188427000Y-80081000D01*
X188430000Y-80086000D01*
X188432000Y-80092000D01*
X188434000Y-80098000D01*
X188436000Y-80104000D01*
X188437000Y-80110000D01*
X188439000Y-80116000D01*
X188439000Y-80122000D01*
X188440000Y-80129000D01*
X188440000Y-80135000D01*
X188440000Y-80645000D01*
X188440000Y-80651000D01*
X188439000Y-80658000D01*
X188439000Y-80664000D01*
X188437000Y-80670000D01*
X188436000Y-80676000D01*
X188434000Y-80682000D01*
X188432000Y-80688000D01*
X188430000Y-80694000D01*
X188427000Y-80699000D01*
X188424000Y-80705000D01*
X188421000Y-80710000D01*
X188417000Y-80716000D01*
X188413000Y-80721000D01*
X188409000Y-80725000D01*
X188405000Y-80730000D01*
X188400000Y-80734000D01*
X188396000Y-80738000D01*
X188391000Y-80742000D01*
X188385000Y-80746000D01*
X188380000Y-80749000D01*
X188374000Y-80752000D01*
X188369000Y-80755000D01*
X188363000Y-80757000D01*
X188357000Y-80759000D01*
X188351000Y-80761000D01*
X188345000Y-80762000D01*
X188339000Y-80764000D01*
X188333000Y-80764000D01*
X188326000Y-80765000D01*
X188320000Y-80765000D01*
X188180000Y-80765000D01*
X188174000Y-80765000D01*
X188167000Y-80764000D01*
X188161000Y-80764000D01*
X188155000Y-80762000D01*
X188149000Y-80761000D01*
X188143000Y-80759000D01*
X188137000Y-80757000D01*
X188131000Y-80755000D01*
X188126000Y-80752000D01*
X188120000Y-80749000D01*
X188115000Y-80746000D01*
X188109000Y-80742000D01*
X188104000Y-80738000D01*
X188100000Y-80734000D01*
X188095000Y-80730000D01*
X188091000Y-80725000D01*
X188087000Y-80721000D01*
X188083000Y-80716000D01*
X188079000Y-80710000D01*
X188076000Y-80705000D01*
X188073000Y-80699000D01*
X188070000Y-80694000D01*
X188068000Y-80688000D01*
X188066000Y-80682000D01*
X188064000Y-80676000D01*
X188063000Y-80670000D01*
X188061000Y-80664000D01*
X188061000Y-80658000D01*
X188060000Y-80651000D01*
X188060000Y-80645000D01*
X188060000Y-80135000D01*
X188060000Y-80129000D01*
X188061000Y-80122000D01*
X188061000Y-80116000D01*
X188063000Y-80110000D01*
X188064000Y-80104000D01*
X188066000Y-80098000D01*
X188068000Y-80092000D01*
X188070000Y-80086000D01*
X188073000Y-80081000D01*
X188076000Y-80075000D01*
X188079000Y-80070000D01*
X188083000Y-80064000D01*
X188087000Y-80059000D01*
X188091000Y-80055000D01*
X188095000Y-80050000D01*
X188100000Y-80046000D01*
X188104000Y-80042000D01*
X188109000Y-80038000D01*
X188115000Y-80034000D01*
X188120000Y-80031000D01*
X188126000Y-80028000D01*
X188131000Y-80025000D01*
X188137000Y-80023000D01*
X188143000Y-80021000D01*
X188149000Y-80019000D01*
X188155000Y-80018000D01*
X188161000Y-80016000D01*
X188167000Y-80016000D01*
X188174000Y-80015000D01*
X188180000Y-80015000D01*
X188320000Y-80015000D01*
X188326000Y-80015000D01*
X188333000Y-80016000D01*
G37*
X188833000Y-77236000D02*
X188839000Y-77236000D01*
X188845000Y-77238000D01*
X188851000Y-77239000D01*
X188857000Y-77241000D01*
X188863000Y-77243000D01*
X188869000Y-77245000D01*
X188874000Y-77248000D01*
X188880000Y-77251000D01*
X188885000Y-77254000D01*
X188891000Y-77258000D01*
X188896000Y-77262000D01*
X188900000Y-77266000D01*
X188905000Y-77270000D01*
X188909000Y-77275000D01*
X188913000Y-77279000D01*
X188917000Y-77284000D01*
X188921000Y-77290000D01*
X188924000Y-77295000D01*
X188927000Y-77301000D01*
X188930000Y-77306000D01*
X188932000Y-77312000D01*
X188934000Y-77318000D01*
X188936000Y-77324000D01*
X188937000Y-77330000D01*
X188939000Y-77336000D01*
X188939000Y-77342000D01*
X188940000Y-77349000D01*
X188940000Y-77355000D01*
X188940000Y-77865000D01*
X188940000Y-77871000D01*
X188939000Y-77878000D01*
X188939000Y-77884000D01*
X188937000Y-77890000D01*
X188936000Y-77896000D01*
X188934000Y-77902000D01*
X188932000Y-77908000D01*
X188930000Y-77914000D01*
X188927000Y-77919000D01*
X188924000Y-77925000D01*
X188921000Y-77930000D01*
X188917000Y-77936000D01*
X188913000Y-77941000D01*
X188909000Y-77945000D01*
X188905000Y-77950000D01*
X188900000Y-77954000D01*
X188896000Y-77958000D01*
X188891000Y-77962000D01*
X188885000Y-77966000D01*
X188880000Y-77969000D01*
X188874000Y-77972000D01*
X188869000Y-77975000D01*
X188863000Y-77977000D01*
X188857000Y-77979000D01*
X188851000Y-77981000D01*
X188845000Y-77982000D01*
X188839000Y-77984000D01*
X188833000Y-77984000D01*
X188826000Y-77985000D01*
X188820000Y-77985000D01*
X188680000Y-77985000D01*
X188674000Y-77985000D01*
X188667000Y-77984000D01*
X188661000Y-77984000D01*
X188655000Y-77982000D01*
X188649000Y-77981000D01*
X188643000Y-77979000D01*
X188637000Y-77977000D01*
X188631000Y-77975000D01*
X188626000Y-77972000D01*
X188620000Y-77969000D01*
X188615000Y-77966000D01*
X188609000Y-77962000D01*
X188604000Y-77958000D01*
X188600000Y-77954000D01*
X188595000Y-77950000D01*
X188591000Y-77945000D01*
X188587000Y-77941000D01*
X188583000Y-77936000D01*
X188579000Y-77930000D01*
X188576000Y-77925000D01*
X188573000Y-77919000D01*
X188570000Y-77914000D01*
X188568000Y-77908000D01*
X188566000Y-77902000D01*
X188564000Y-77896000D01*
X188563000Y-77890000D01*
X188561000Y-77884000D01*
X188561000Y-77878000D01*
X188560000Y-77871000D01*
X188560000Y-77865000D01*
X188560000Y-77355000D01*
X188560000Y-77349000D01*
X188561000Y-77342000D01*
X188561000Y-77336000D01*
X188563000Y-77330000D01*
X188564000Y-77324000D01*
X188566000Y-77318000D01*
X188568000Y-77312000D01*
X188570000Y-77306000D01*
X188573000Y-77301000D01*
X188576000Y-77295000D01*
X188579000Y-77290000D01*
X188583000Y-77284000D01*
X188587000Y-77279000D01*
X188591000Y-77275000D01*
X188595000Y-77270000D01*
X188600000Y-77266000D01*
X188604000Y-77262000D01*
X188609000Y-77258000D01*
X188615000Y-77254000D01*
X188620000Y-77251000D01*
X188626000Y-77248000D01*
X188631000Y-77245000D01*
X188637000Y-77243000D01*
X188643000Y-77241000D01*
X188649000Y-77239000D01*
X188655000Y-77238000D01*
X188661000Y-77236000D01*
X188667000Y-77236000D01*
X188674000Y-77235000D01*
X188680000Y-77235000D01*
X188820000Y-77235000D01*
X188826000Y-77235000D01*
X188833000Y-77236000D01*
G36*
X188833000Y-77236000D02*
G01*
X188839000Y-77236000D01*
X188845000Y-77238000D01*
X188851000Y-77239000D01*
X188857000Y-77241000D01*
X188863000Y-77243000D01*
X188869000Y-77245000D01*
X188874000Y-77248000D01*
X188880000Y-77251000D01*
X188885000Y-77254000D01*
X188891000Y-77258000D01*
X188896000Y-77262000D01*
X188900000Y-77266000D01*
X188905000Y-77270000D01*
X188909000Y-77275000D01*
X188913000Y-77279000D01*
X188917000Y-77284000D01*
X188921000Y-77290000D01*
X188924000Y-77295000D01*
X188927000Y-77301000D01*
X188930000Y-77306000D01*
X188932000Y-77312000D01*
X188934000Y-77318000D01*
X188936000Y-77324000D01*
X188937000Y-77330000D01*
X188939000Y-77336000D01*
X188939000Y-77342000D01*
X188940000Y-77349000D01*
X188940000Y-77355000D01*
X188940000Y-77865000D01*
X188940000Y-77871000D01*
X188939000Y-77878000D01*
X188939000Y-77884000D01*
X188937000Y-77890000D01*
X188936000Y-77896000D01*
X188934000Y-77902000D01*
X188932000Y-77908000D01*
X188930000Y-77914000D01*
X188927000Y-77919000D01*
X188924000Y-77925000D01*
X188921000Y-77930000D01*
X188917000Y-77936000D01*
X188913000Y-77941000D01*
X188909000Y-77945000D01*
X188905000Y-77950000D01*
X188900000Y-77954000D01*
X188896000Y-77958000D01*
X188891000Y-77962000D01*
X188885000Y-77966000D01*
X188880000Y-77969000D01*
X188874000Y-77972000D01*
X188869000Y-77975000D01*
X188863000Y-77977000D01*
X188857000Y-77979000D01*
X188851000Y-77981000D01*
X188845000Y-77982000D01*
X188839000Y-77984000D01*
X188833000Y-77984000D01*
X188826000Y-77985000D01*
X188820000Y-77985000D01*
X188680000Y-77985000D01*
X188674000Y-77985000D01*
X188667000Y-77984000D01*
X188661000Y-77984000D01*
X188655000Y-77982000D01*
X188649000Y-77981000D01*
X188643000Y-77979000D01*
X188637000Y-77977000D01*
X188631000Y-77975000D01*
X188626000Y-77972000D01*
X188620000Y-77969000D01*
X188615000Y-77966000D01*
X188609000Y-77962000D01*
X188604000Y-77958000D01*
X188600000Y-77954000D01*
X188595000Y-77950000D01*
X188591000Y-77945000D01*
X188587000Y-77941000D01*
X188583000Y-77936000D01*
X188579000Y-77930000D01*
X188576000Y-77925000D01*
X188573000Y-77919000D01*
X188570000Y-77914000D01*
X188568000Y-77908000D01*
X188566000Y-77902000D01*
X188564000Y-77896000D01*
X188563000Y-77890000D01*
X188561000Y-77884000D01*
X188561000Y-77878000D01*
X188560000Y-77871000D01*
X188560000Y-77865000D01*
X188560000Y-77355000D01*
X188560000Y-77349000D01*
X188561000Y-77342000D01*
X188561000Y-77336000D01*
X188563000Y-77330000D01*
X188564000Y-77324000D01*
X188566000Y-77318000D01*
X188568000Y-77312000D01*
X188570000Y-77306000D01*
X188573000Y-77301000D01*
X188576000Y-77295000D01*
X188579000Y-77290000D01*
X188583000Y-77284000D01*
X188587000Y-77279000D01*
X188591000Y-77275000D01*
X188595000Y-77270000D01*
X188600000Y-77266000D01*
X188604000Y-77262000D01*
X188609000Y-77258000D01*
X188615000Y-77254000D01*
X188620000Y-77251000D01*
X188626000Y-77248000D01*
X188631000Y-77245000D01*
X188637000Y-77243000D01*
X188643000Y-77241000D01*
X188649000Y-77239000D01*
X188655000Y-77238000D01*
X188661000Y-77236000D01*
X188667000Y-77236000D01*
X188674000Y-77235000D01*
X188680000Y-77235000D01*
X188820000Y-77235000D01*
X188826000Y-77235000D01*
X188833000Y-77236000D01*
G37*
X188833000Y-80016000D02*
X188839000Y-80016000D01*
X188845000Y-80018000D01*
X188851000Y-80019000D01*
X188857000Y-80021000D01*
X188863000Y-80023000D01*
X188869000Y-80025000D01*
X188874000Y-80028000D01*
X188880000Y-80031000D01*
X188885000Y-80034000D01*
X188891000Y-80038000D01*
X188896000Y-80042000D01*
X188900000Y-80046000D01*
X188905000Y-80050000D01*
X188909000Y-80055000D01*
X188913000Y-80059000D01*
X188917000Y-80064000D01*
X188921000Y-80070000D01*
X188924000Y-80075000D01*
X188927000Y-80081000D01*
X188930000Y-80086000D01*
X188932000Y-80092000D01*
X188934000Y-80098000D01*
X188936000Y-80104000D01*
X188937000Y-80110000D01*
X188939000Y-80116000D01*
X188939000Y-80122000D01*
X188940000Y-80129000D01*
X188940000Y-80135000D01*
X188940000Y-80645000D01*
X188940000Y-80651000D01*
X188939000Y-80658000D01*
X188939000Y-80664000D01*
X188937000Y-80670000D01*
X188936000Y-80676000D01*
X188934000Y-80682000D01*
X188932000Y-80688000D01*
X188930000Y-80694000D01*
X188927000Y-80699000D01*
X188924000Y-80705000D01*
X188921000Y-80710000D01*
X188917000Y-80716000D01*
X188913000Y-80721000D01*
X188909000Y-80725000D01*
X188905000Y-80730000D01*
X188900000Y-80734000D01*
X188896000Y-80738000D01*
X188891000Y-80742000D01*
X188885000Y-80746000D01*
X188880000Y-80749000D01*
X188874000Y-80752000D01*
X188869000Y-80755000D01*
X188863000Y-80757000D01*
X188857000Y-80759000D01*
X188851000Y-80761000D01*
X188845000Y-80762000D01*
X188839000Y-80764000D01*
X188833000Y-80764000D01*
X188826000Y-80765000D01*
X188820000Y-80765000D01*
X188680000Y-80765000D01*
X188674000Y-80765000D01*
X188667000Y-80764000D01*
X188661000Y-80764000D01*
X188655000Y-80762000D01*
X188649000Y-80761000D01*
X188643000Y-80759000D01*
X188637000Y-80757000D01*
X188631000Y-80755000D01*
X188626000Y-80752000D01*
X188620000Y-80749000D01*
X188615000Y-80746000D01*
X188609000Y-80742000D01*
X188604000Y-80738000D01*
X188600000Y-80734000D01*
X188595000Y-80730000D01*
X188591000Y-80725000D01*
X188587000Y-80721000D01*
X188583000Y-80716000D01*
X188579000Y-80710000D01*
X188576000Y-80705000D01*
X188573000Y-80699000D01*
X188570000Y-80694000D01*
X188568000Y-80688000D01*
X188566000Y-80682000D01*
X188564000Y-80676000D01*
X188563000Y-80670000D01*
X188561000Y-80664000D01*
X188561000Y-80658000D01*
X188560000Y-80651000D01*
X188560000Y-80645000D01*
X188560000Y-80135000D01*
X188560000Y-80129000D01*
X188561000Y-80122000D01*
X188561000Y-80116000D01*
X188563000Y-80110000D01*
X188564000Y-80104000D01*
X188566000Y-80098000D01*
X188568000Y-80092000D01*
X188570000Y-80086000D01*
X188573000Y-80081000D01*
X188576000Y-80075000D01*
X188579000Y-80070000D01*
X188583000Y-80064000D01*
X188587000Y-80059000D01*
X188591000Y-80055000D01*
X188595000Y-80050000D01*
X188600000Y-80046000D01*
X188604000Y-80042000D01*
X188609000Y-80038000D01*
X188615000Y-80034000D01*
X188620000Y-80031000D01*
X188626000Y-80028000D01*
X188631000Y-80025000D01*
X188637000Y-80023000D01*
X188643000Y-80021000D01*
X188649000Y-80019000D01*
X188655000Y-80018000D01*
X188661000Y-80016000D01*
X188667000Y-80016000D01*
X188674000Y-80015000D01*
X188680000Y-80015000D01*
X188820000Y-80015000D01*
X188826000Y-80015000D01*
X188833000Y-80016000D01*
G36*
X188833000Y-80016000D02*
G01*
X188839000Y-80016000D01*
X188845000Y-80018000D01*
X188851000Y-80019000D01*
X188857000Y-80021000D01*
X188863000Y-80023000D01*
X188869000Y-80025000D01*
X188874000Y-80028000D01*
X188880000Y-80031000D01*
X188885000Y-80034000D01*
X188891000Y-80038000D01*
X188896000Y-80042000D01*
X188900000Y-80046000D01*
X188905000Y-80050000D01*
X188909000Y-80055000D01*
X188913000Y-80059000D01*
X188917000Y-80064000D01*
X188921000Y-80070000D01*
X188924000Y-80075000D01*
X188927000Y-80081000D01*
X188930000Y-80086000D01*
X188932000Y-80092000D01*
X188934000Y-80098000D01*
X188936000Y-80104000D01*
X188937000Y-80110000D01*
X188939000Y-80116000D01*
X188939000Y-80122000D01*
X188940000Y-80129000D01*
X188940000Y-80135000D01*
X188940000Y-80645000D01*
X188940000Y-80651000D01*
X188939000Y-80658000D01*
X188939000Y-80664000D01*
X188937000Y-80670000D01*
X188936000Y-80676000D01*
X188934000Y-80682000D01*
X188932000Y-80688000D01*
X188930000Y-80694000D01*
X188927000Y-80699000D01*
X188924000Y-80705000D01*
X188921000Y-80710000D01*
X188917000Y-80716000D01*
X188913000Y-80721000D01*
X188909000Y-80725000D01*
X188905000Y-80730000D01*
X188900000Y-80734000D01*
X188896000Y-80738000D01*
X188891000Y-80742000D01*
X188885000Y-80746000D01*
X188880000Y-80749000D01*
X188874000Y-80752000D01*
X188869000Y-80755000D01*
X188863000Y-80757000D01*
X188857000Y-80759000D01*
X188851000Y-80761000D01*
X188845000Y-80762000D01*
X188839000Y-80764000D01*
X188833000Y-80764000D01*
X188826000Y-80765000D01*
X188820000Y-80765000D01*
X188680000Y-80765000D01*
X188674000Y-80765000D01*
X188667000Y-80764000D01*
X188661000Y-80764000D01*
X188655000Y-80762000D01*
X188649000Y-80761000D01*
X188643000Y-80759000D01*
X188637000Y-80757000D01*
X188631000Y-80755000D01*
X188626000Y-80752000D01*
X188620000Y-80749000D01*
X188615000Y-80746000D01*
X188609000Y-80742000D01*
X188604000Y-80738000D01*
X188600000Y-80734000D01*
X188595000Y-80730000D01*
X188591000Y-80725000D01*
X188587000Y-80721000D01*
X188583000Y-80716000D01*
X188579000Y-80710000D01*
X188576000Y-80705000D01*
X188573000Y-80699000D01*
X188570000Y-80694000D01*
X188568000Y-80688000D01*
X188566000Y-80682000D01*
X188564000Y-80676000D01*
X188563000Y-80670000D01*
X188561000Y-80664000D01*
X188561000Y-80658000D01*
X188560000Y-80651000D01*
X188560000Y-80645000D01*
X188560000Y-80135000D01*
X188560000Y-80129000D01*
X188561000Y-80122000D01*
X188561000Y-80116000D01*
X188563000Y-80110000D01*
X188564000Y-80104000D01*
X188566000Y-80098000D01*
X188568000Y-80092000D01*
X188570000Y-80086000D01*
X188573000Y-80081000D01*
X188576000Y-80075000D01*
X188579000Y-80070000D01*
X188583000Y-80064000D01*
X188587000Y-80059000D01*
X188591000Y-80055000D01*
X188595000Y-80050000D01*
X188600000Y-80046000D01*
X188604000Y-80042000D01*
X188609000Y-80038000D01*
X188615000Y-80034000D01*
X188620000Y-80031000D01*
X188626000Y-80028000D01*
X188631000Y-80025000D01*
X188637000Y-80023000D01*
X188643000Y-80021000D01*
X188649000Y-80019000D01*
X188655000Y-80018000D01*
X188661000Y-80016000D01*
X188667000Y-80016000D01*
X188674000Y-80015000D01*
X188680000Y-80015000D01*
X188820000Y-80015000D01*
X188826000Y-80015000D01*
X188833000Y-80016000D01*
G37*
X189333000Y-77236000D02*
X189339000Y-77236000D01*
X189345000Y-77238000D01*
X189351000Y-77239000D01*
X189357000Y-77241000D01*
X189363000Y-77243000D01*
X189369000Y-77245000D01*
X189374000Y-77248000D01*
X189380000Y-77251000D01*
X189385000Y-77254000D01*
X189391000Y-77258000D01*
X189396000Y-77262000D01*
X189400000Y-77266000D01*
X189405000Y-77270000D01*
X189409000Y-77275000D01*
X189413000Y-77279000D01*
X189417000Y-77284000D01*
X189421000Y-77290000D01*
X189424000Y-77295000D01*
X189427000Y-77301000D01*
X189430000Y-77306000D01*
X189432000Y-77312000D01*
X189434000Y-77318000D01*
X189436000Y-77324000D01*
X189437000Y-77330000D01*
X189439000Y-77336000D01*
X189439000Y-77342000D01*
X189440000Y-77349000D01*
X189440000Y-77355000D01*
X189440000Y-77865000D01*
X189440000Y-77871000D01*
X189439000Y-77878000D01*
X189439000Y-77884000D01*
X189437000Y-77890000D01*
X189436000Y-77896000D01*
X189434000Y-77902000D01*
X189432000Y-77908000D01*
X189430000Y-77914000D01*
X189427000Y-77919000D01*
X189424000Y-77925000D01*
X189421000Y-77930000D01*
X189417000Y-77936000D01*
X189413000Y-77941000D01*
X189409000Y-77945000D01*
X189405000Y-77950000D01*
X189400000Y-77954000D01*
X189396000Y-77958000D01*
X189391000Y-77962000D01*
X189385000Y-77966000D01*
X189380000Y-77969000D01*
X189374000Y-77972000D01*
X189369000Y-77975000D01*
X189363000Y-77977000D01*
X189357000Y-77979000D01*
X189351000Y-77981000D01*
X189345000Y-77982000D01*
X189339000Y-77984000D01*
X189333000Y-77984000D01*
X189326000Y-77985000D01*
X189320000Y-77985000D01*
X189180000Y-77985000D01*
X189174000Y-77985000D01*
X189167000Y-77984000D01*
X189161000Y-77984000D01*
X189155000Y-77982000D01*
X189149000Y-77981000D01*
X189143000Y-77979000D01*
X189137000Y-77977000D01*
X189131000Y-77975000D01*
X189126000Y-77972000D01*
X189120000Y-77969000D01*
X189115000Y-77966000D01*
X189109000Y-77962000D01*
X189104000Y-77958000D01*
X189100000Y-77954000D01*
X189095000Y-77950000D01*
X189091000Y-77945000D01*
X189087000Y-77941000D01*
X189083000Y-77936000D01*
X189079000Y-77930000D01*
X189076000Y-77925000D01*
X189073000Y-77919000D01*
X189070000Y-77914000D01*
X189068000Y-77908000D01*
X189066000Y-77902000D01*
X189064000Y-77896000D01*
X189063000Y-77890000D01*
X189061000Y-77884000D01*
X189061000Y-77878000D01*
X189060000Y-77871000D01*
X189060000Y-77865000D01*
X189060000Y-77355000D01*
X189060000Y-77349000D01*
X189061000Y-77342000D01*
X189061000Y-77336000D01*
X189063000Y-77330000D01*
X189064000Y-77324000D01*
X189066000Y-77318000D01*
X189068000Y-77312000D01*
X189070000Y-77306000D01*
X189073000Y-77301000D01*
X189076000Y-77295000D01*
X189079000Y-77290000D01*
X189083000Y-77284000D01*
X189087000Y-77279000D01*
X189091000Y-77275000D01*
X189095000Y-77270000D01*
X189100000Y-77266000D01*
X189104000Y-77262000D01*
X189109000Y-77258000D01*
X189115000Y-77254000D01*
X189120000Y-77251000D01*
X189126000Y-77248000D01*
X189131000Y-77245000D01*
X189137000Y-77243000D01*
X189143000Y-77241000D01*
X189149000Y-77239000D01*
X189155000Y-77238000D01*
X189161000Y-77236000D01*
X189167000Y-77236000D01*
X189174000Y-77235000D01*
X189180000Y-77235000D01*
X189320000Y-77235000D01*
X189326000Y-77235000D01*
X189333000Y-77236000D01*
G36*
X189333000Y-77236000D02*
G01*
X189339000Y-77236000D01*
X189345000Y-77238000D01*
X189351000Y-77239000D01*
X189357000Y-77241000D01*
X189363000Y-77243000D01*
X189369000Y-77245000D01*
X189374000Y-77248000D01*
X189380000Y-77251000D01*
X189385000Y-77254000D01*
X189391000Y-77258000D01*
X189396000Y-77262000D01*
X189400000Y-77266000D01*
X189405000Y-77270000D01*
X189409000Y-77275000D01*
X189413000Y-77279000D01*
X189417000Y-77284000D01*
X189421000Y-77290000D01*
X189424000Y-77295000D01*
X189427000Y-77301000D01*
X189430000Y-77306000D01*
X189432000Y-77312000D01*
X189434000Y-77318000D01*
X189436000Y-77324000D01*
X189437000Y-77330000D01*
X189439000Y-77336000D01*
X189439000Y-77342000D01*
X189440000Y-77349000D01*
X189440000Y-77355000D01*
X189440000Y-77865000D01*
X189440000Y-77871000D01*
X189439000Y-77878000D01*
X189439000Y-77884000D01*
X189437000Y-77890000D01*
X189436000Y-77896000D01*
X189434000Y-77902000D01*
X189432000Y-77908000D01*
X189430000Y-77914000D01*
X189427000Y-77919000D01*
X189424000Y-77925000D01*
X189421000Y-77930000D01*
X189417000Y-77936000D01*
X189413000Y-77941000D01*
X189409000Y-77945000D01*
X189405000Y-77950000D01*
X189400000Y-77954000D01*
X189396000Y-77958000D01*
X189391000Y-77962000D01*
X189385000Y-77966000D01*
X189380000Y-77969000D01*
X189374000Y-77972000D01*
X189369000Y-77975000D01*
X189363000Y-77977000D01*
X189357000Y-77979000D01*
X189351000Y-77981000D01*
X189345000Y-77982000D01*
X189339000Y-77984000D01*
X189333000Y-77984000D01*
X189326000Y-77985000D01*
X189320000Y-77985000D01*
X189180000Y-77985000D01*
X189174000Y-77985000D01*
X189167000Y-77984000D01*
X189161000Y-77984000D01*
X189155000Y-77982000D01*
X189149000Y-77981000D01*
X189143000Y-77979000D01*
X189137000Y-77977000D01*
X189131000Y-77975000D01*
X189126000Y-77972000D01*
X189120000Y-77969000D01*
X189115000Y-77966000D01*
X189109000Y-77962000D01*
X189104000Y-77958000D01*
X189100000Y-77954000D01*
X189095000Y-77950000D01*
X189091000Y-77945000D01*
X189087000Y-77941000D01*
X189083000Y-77936000D01*
X189079000Y-77930000D01*
X189076000Y-77925000D01*
X189073000Y-77919000D01*
X189070000Y-77914000D01*
X189068000Y-77908000D01*
X189066000Y-77902000D01*
X189064000Y-77896000D01*
X189063000Y-77890000D01*
X189061000Y-77884000D01*
X189061000Y-77878000D01*
X189060000Y-77871000D01*
X189060000Y-77865000D01*
X189060000Y-77355000D01*
X189060000Y-77349000D01*
X189061000Y-77342000D01*
X189061000Y-77336000D01*
X189063000Y-77330000D01*
X189064000Y-77324000D01*
X189066000Y-77318000D01*
X189068000Y-77312000D01*
X189070000Y-77306000D01*
X189073000Y-77301000D01*
X189076000Y-77295000D01*
X189079000Y-77290000D01*
X189083000Y-77284000D01*
X189087000Y-77279000D01*
X189091000Y-77275000D01*
X189095000Y-77270000D01*
X189100000Y-77266000D01*
X189104000Y-77262000D01*
X189109000Y-77258000D01*
X189115000Y-77254000D01*
X189120000Y-77251000D01*
X189126000Y-77248000D01*
X189131000Y-77245000D01*
X189137000Y-77243000D01*
X189143000Y-77241000D01*
X189149000Y-77239000D01*
X189155000Y-77238000D01*
X189161000Y-77236000D01*
X189167000Y-77236000D01*
X189174000Y-77235000D01*
X189180000Y-77235000D01*
X189320000Y-77235000D01*
X189326000Y-77235000D01*
X189333000Y-77236000D01*
G37*
X189333000Y-80016000D02*
X189339000Y-80016000D01*
X189345000Y-80018000D01*
X189351000Y-80019000D01*
X189357000Y-80021000D01*
X189363000Y-80023000D01*
X189369000Y-80025000D01*
X189374000Y-80028000D01*
X189380000Y-80031000D01*
X189385000Y-80034000D01*
X189391000Y-80038000D01*
X189396000Y-80042000D01*
X189400000Y-80046000D01*
X189405000Y-80050000D01*
X189409000Y-80055000D01*
X189413000Y-80059000D01*
X189417000Y-80064000D01*
X189421000Y-80070000D01*
X189424000Y-80075000D01*
X189427000Y-80081000D01*
X189430000Y-80086000D01*
X189432000Y-80092000D01*
X189434000Y-80098000D01*
X189436000Y-80104000D01*
X189437000Y-80110000D01*
X189439000Y-80116000D01*
X189439000Y-80122000D01*
X189440000Y-80129000D01*
X189440000Y-80135000D01*
X189440000Y-80645000D01*
X189440000Y-80651000D01*
X189439000Y-80658000D01*
X189439000Y-80664000D01*
X189437000Y-80670000D01*
X189436000Y-80676000D01*
X189434000Y-80682000D01*
X189432000Y-80688000D01*
X189430000Y-80694000D01*
X189427000Y-80699000D01*
X189424000Y-80705000D01*
X189421000Y-80710000D01*
X189417000Y-80716000D01*
X189413000Y-80721000D01*
X189409000Y-80725000D01*
X189405000Y-80730000D01*
X189400000Y-80734000D01*
X189396000Y-80738000D01*
X189391000Y-80742000D01*
X189385000Y-80746000D01*
X189380000Y-80749000D01*
X189374000Y-80752000D01*
X189369000Y-80755000D01*
X189363000Y-80757000D01*
X189357000Y-80759000D01*
X189351000Y-80761000D01*
X189345000Y-80762000D01*
X189339000Y-80764000D01*
X189333000Y-80764000D01*
X189326000Y-80765000D01*
X189320000Y-80765000D01*
X189180000Y-80765000D01*
X189174000Y-80765000D01*
X189167000Y-80764000D01*
X189161000Y-80764000D01*
X189155000Y-80762000D01*
X189149000Y-80761000D01*
X189143000Y-80759000D01*
X189137000Y-80757000D01*
X189131000Y-80755000D01*
X189126000Y-80752000D01*
X189120000Y-80749000D01*
X189115000Y-80746000D01*
X189109000Y-80742000D01*
X189104000Y-80738000D01*
X189100000Y-80734000D01*
X189095000Y-80730000D01*
X189091000Y-80725000D01*
X189087000Y-80721000D01*
X189083000Y-80716000D01*
X189079000Y-80710000D01*
X189076000Y-80705000D01*
X189073000Y-80699000D01*
X189070000Y-80694000D01*
X189068000Y-80688000D01*
X189066000Y-80682000D01*
X189064000Y-80676000D01*
X189063000Y-80670000D01*
X189061000Y-80664000D01*
X189061000Y-80658000D01*
X189060000Y-80651000D01*
X189060000Y-80645000D01*
X189060000Y-80135000D01*
X189060000Y-80129000D01*
X189061000Y-80122000D01*
X189061000Y-80116000D01*
X189063000Y-80110000D01*
X189064000Y-80104000D01*
X189066000Y-80098000D01*
X189068000Y-80092000D01*
X189070000Y-80086000D01*
X189073000Y-80081000D01*
X189076000Y-80075000D01*
X189079000Y-80070000D01*
X189083000Y-80064000D01*
X189087000Y-80059000D01*
X189091000Y-80055000D01*
X189095000Y-80050000D01*
X189100000Y-80046000D01*
X189104000Y-80042000D01*
X189109000Y-80038000D01*
X189115000Y-80034000D01*
X189120000Y-80031000D01*
X189126000Y-80028000D01*
X189131000Y-80025000D01*
X189137000Y-80023000D01*
X189143000Y-80021000D01*
X189149000Y-80019000D01*
X189155000Y-80018000D01*
X189161000Y-80016000D01*
X189167000Y-80016000D01*
X189174000Y-80015000D01*
X189180000Y-80015000D01*
X189320000Y-80015000D01*
X189326000Y-80015000D01*
X189333000Y-80016000D01*
G36*
X189333000Y-80016000D02*
G01*
X189339000Y-80016000D01*
X189345000Y-80018000D01*
X189351000Y-80019000D01*
X189357000Y-80021000D01*
X189363000Y-80023000D01*
X189369000Y-80025000D01*
X189374000Y-80028000D01*
X189380000Y-80031000D01*
X189385000Y-80034000D01*
X189391000Y-80038000D01*
X189396000Y-80042000D01*
X189400000Y-80046000D01*
X189405000Y-80050000D01*
X189409000Y-80055000D01*
X189413000Y-80059000D01*
X189417000Y-80064000D01*
X189421000Y-80070000D01*
X189424000Y-80075000D01*
X189427000Y-80081000D01*
X189430000Y-80086000D01*
X189432000Y-80092000D01*
X189434000Y-80098000D01*
X189436000Y-80104000D01*
X189437000Y-80110000D01*
X189439000Y-80116000D01*
X189439000Y-80122000D01*
X189440000Y-80129000D01*
X189440000Y-80135000D01*
X189440000Y-80645000D01*
X189440000Y-80651000D01*
X189439000Y-80658000D01*
X189439000Y-80664000D01*
X189437000Y-80670000D01*
X189436000Y-80676000D01*
X189434000Y-80682000D01*
X189432000Y-80688000D01*
X189430000Y-80694000D01*
X189427000Y-80699000D01*
X189424000Y-80705000D01*
X189421000Y-80710000D01*
X189417000Y-80716000D01*
X189413000Y-80721000D01*
X189409000Y-80725000D01*
X189405000Y-80730000D01*
X189400000Y-80734000D01*
X189396000Y-80738000D01*
X189391000Y-80742000D01*
X189385000Y-80746000D01*
X189380000Y-80749000D01*
X189374000Y-80752000D01*
X189369000Y-80755000D01*
X189363000Y-80757000D01*
X189357000Y-80759000D01*
X189351000Y-80761000D01*
X189345000Y-80762000D01*
X189339000Y-80764000D01*
X189333000Y-80764000D01*
X189326000Y-80765000D01*
X189320000Y-80765000D01*
X189180000Y-80765000D01*
X189174000Y-80765000D01*
X189167000Y-80764000D01*
X189161000Y-80764000D01*
X189155000Y-80762000D01*
X189149000Y-80761000D01*
X189143000Y-80759000D01*
X189137000Y-80757000D01*
X189131000Y-80755000D01*
X189126000Y-80752000D01*
X189120000Y-80749000D01*
X189115000Y-80746000D01*
X189109000Y-80742000D01*
X189104000Y-80738000D01*
X189100000Y-80734000D01*
X189095000Y-80730000D01*
X189091000Y-80725000D01*
X189087000Y-80721000D01*
X189083000Y-80716000D01*
X189079000Y-80710000D01*
X189076000Y-80705000D01*
X189073000Y-80699000D01*
X189070000Y-80694000D01*
X189068000Y-80688000D01*
X189066000Y-80682000D01*
X189064000Y-80676000D01*
X189063000Y-80670000D01*
X189061000Y-80664000D01*
X189061000Y-80658000D01*
X189060000Y-80651000D01*
X189060000Y-80645000D01*
X189060000Y-80135000D01*
X189060000Y-80129000D01*
X189061000Y-80122000D01*
X189061000Y-80116000D01*
X189063000Y-80110000D01*
X189064000Y-80104000D01*
X189066000Y-80098000D01*
X189068000Y-80092000D01*
X189070000Y-80086000D01*
X189073000Y-80081000D01*
X189076000Y-80075000D01*
X189079000Y-80070000D01*
X189083000Y-80064000D01*
X189087000Y-80059000D01*
X189091000Y-80055000D01*
X189095000Y-80050000D01*
X189100000Y-80046000D01*
X189104000Y-80042000D01*
X189109000Y-80038000D01*
X189115000Y-80034000D01*
X189120000Y-80031000D01*
X189126000Y-80028000D01*
X189131000Y-80025000D01*
X189137000Y-80023000D01*
X189143000Y-80021000D01*
X189149000Y-80019000D01*
X189155000Y-80018000D01*
X189161000Y-80016000D01*
X189167000Y-80016000D01*
X189174000Y-80015000D01*
X189180000Y-80015000D01*
X189320000Y-80015000D01*
X189326000Y-80015000D01*
X189333000Y-80016000D01*
G37*
X189833000Y-77236000D02*
X189839000Y-77236000D01*
X189845000Y-77238000D01*
X189851000Y-77239000D01*
X189857000Y-77241000D01*
X189863000Y-77243000D01*
X189869000Y-77245000D01*
X189874000Y-77248000D01*
X189880000Y-77251000D01*
X189885000Y-77254000D01*
X189891000Y-77258000D01*
X189896000Y-77262000D01*
X189900000Y-77266000D01*
X189905000Y-77270000D01*
X189909000Y-77275000D01*
X189913000Y-77279000D01*
X189917000Y-77284000D01*
X189921000Y-77290000D01*
X189924000Y-77295000D01*
X189927000Y-77301000D01*
X189930000Y-77306000D01*
X189932000Y-77312000D01*
X189934000Y-77318000D01*
X189936000Y-77324000D01*
X189937000Y-77330000D01*
X189939000Y-77336000D01*
X189939000Y-77342000D01*
X189940000Y-77349000D01*
X189940000Y-77355000D01*
X189940000Y-77865000D01*
X189940000Y-77871000D01*
X189939000Y-77878000D01*
X189939000Y-77884000D01*
X189937000Y-77890000D01*
X189936000Y-77896000D01*
X189934000Y-77902000D01*
X189932000Y-77908000D01*
X189930000Y-77914000D01*
X189927000Y-77919000D01*
X189924000Y-77925000D01*
X189921000Y-77930000D01*
X189917000Y-77936000D01*
X189913000Y-77941000D01*
X189909000Y-77945000D01*
X189905000Y-77950000D01*
X189900000Y-77954000D01*
X189896000Y-77958000D01*
X189891000Y-77962000D01*
X189885000Y-77966000D01*
X189880000Y-77969000D01*
X189874000Y-77972000D01*
X189869000Y-77975000D01*
X189863000Y-77977000D01*
X189857000Y-77979000D01*
X189851000Y-77981000D01*
X189845000Y-77982000D01*
X189839000Y-77984000D01*
X189833000Y-77984000D01*
X189826000Y-77985000D01*
X189820000Y-77985000D01*
X189680000Y-77985000D01*
X189674000Y-77985000D01*
X189667000Y-77984000D01*
X189661000Y-77984000D01*
X189655000Y-77982000D01*
X189649000Y-77981000D01*
X189643000Y-77979000D01*
X189637000Y-77977000D01*
X189631000Y-77975000D01*
X189626000Y-77972000D01*
X189620000Y-77969000D01*
X189615000Y-77966000D01*
X189609000Y-77962000D01*
X189604000Y-77958000D01*
X189600000Y-77954000D01*
X189595000Y-77950000D01*
X189591000Y-77945000D01*
X189587000Y-77941000D01*
X189583000Y-77936000D01*
X189579000Y-77930000D01*
X189576000Y-77925000D01*
X189573000Y-77919000D01*
X189570000Y-77914000D01*
X189568000Y-77908000D01*
X189566000Y-77902000D01*
X189564000Y-77896000D01*
X189563000Y-77890000D01*
X189561000Y-77884000D01*
X189561000Y-77878000D01*
X189560000Y-77871000D01*
X189560000Y-77865000D01*
X189560000Y-77355000D01*
X189560000Y-77349000D01*
X189561000Y-77342000D01*
X189561000Y-77336000D01*
X189563000Y-77330000D01*
X189564000Y-77324000D01*
X189566000Y-77318000D01*
X189568000Y-77312000D01*
X189570000Y-77306000D01*
X189573000Y-77301000D01*
X189576000Y-77295000D01*
X189579000Y-77290000D01*
X189583000Y-77284000D01*
X189587000Y-77279000D01*
X189591000Y-77275000D01*
X189595000Y-77270000D01*
X189600000Y-77266000D01*
X189604000Y-77262000D01*
X189609000Y-77258000D01*
X189615000Y-77254000D01*
X189620000Y-77251000D01*
X189626000Y-77248000D01*
X189631000Y-77245000D01*
X189637000Y-77243000D01*
X189643000Y-77241000D01*
X189649000Y-77239000D01*
X189655000Y-77238000D01*
X189661000Y-77236000D01*
X189667000Y-77236000D01*
X189674000Y-77235000D01*
X189680000Y-77235000D01*
X189820000Y-77235000D01*
X189826000Y-77235000D01*
X189833000Y-77236000D01*
G36*
X189833000Y-77236000D02*
G01*
X189839000Y-77236000D01*
X189845000Y-77238000D01*
X189851000Y-77239000D01*
X189857000Y-77241000D01*
X189863000Y-77243000D01*
X189869000Y-77245000D01*
X189874000Y-77248000D01*
X189880000Y-77251000D01*
X189885000Y-77254000D01*
X189891000Y-77258000D01*
X189896000Y-77262000D01*
X189900000Y-77266000D01*
X189905000Y-77270000D01*
X189909000Y-77275000D01*
X189913000Y-77279000D01*
X189917000Y-77284000D01*
X189921000Y-77290000D01*
X189924000Y-77295000D01*
X189927000Y-77301000D01*
X189930000Y-77306000D01*
X189932000Y-77312000D01*
X189934000Y-77318000D01*
X189936000Y-77324000D01*
X189937000Y-77330000D01*
X189939000Y-77336000D01*
X189939000Y-77342000D01*
X189940000Y-77349000D01*
X189940000Y-77355000D01*
X189940000Y-77865000D01*
X189940000Y-77871000D01*
X189939000Y-77878000D01*
X189939000Y-77884000D01*
X189937000Y-77890000D01*
X189936000Y-77896000D01*
X189934000Y-77902000D01*
X189932000Y-77908000D01*
X189930000Y-77914000D01*
X189927000Y-77919000D01*
X189924000Y-77925000D01*
X189921000Y-77930000D01*
X189917000Y-77936000D01*
X189913000Y-77941000D01*
X189909000Y-77945000D01*
X189905000Y-77950000D01*
X189900000Y-77954000D01*
X189896000Y-77958000D01*
X189891000Y-77962000D01*
X189885000Y-77966000D01*
X189880000Y-77969000D01*
X189874000Y-77972000D01*
X189869000Y-77975000D01*
X189863000Y-77977000D01*
X189857000Y-77979000D01*
X189851000Y-77981000D01*
X189845000Y-77982000D01*
X189839000Y-77984000D01*
X189833000Y-77984000D01*
X189826000Y-77985000D01*
X189820000Y-77985000D01*
X189680000Y-77985000D01*
X189674000Y-77985000D01*
X189667000Y-77984000D01*
X189661000Y-77984000D01*
X189655000Y-77982000D01*
X189649000Y-77981000D01*
X189643000Y-77979000D01*
X189637000Y-77977000D01*
X189631000Y-77975000D01*
X189626000Y-77972000D01*
X189620000Y-77969000D01*
X189615000Y-77966000D01*
X189609000Y-77962000D01*
X189604000Y-77958000D01*
X189600000Y-77954000D01*
X189595000Y-77950000D01*
X189591000Y-77945000D01*
X189587000Y-77941000D01*
X189583000Y-77936000D01*
X189579000Y-77930000D01*
X189576000Y-77925000D01*
X189573000Y-77919000D01*
X189570000Y-77914000D01*
X189568000Y-77908000D01*
X189566000Y-77902000D01*
X189564000Y-77896000D01*
X189563000Y-77890000D01*
X189561000Y-77884000D01*
X189561000Y-77878000D01*
X189560000Y-77871000D01*
X189560000Y-77865000D01*
X189560000Y-77355000D01*
X189560000Y-77349000D01*
X189561000Y-77342000D01*
X189561000Y-77336000D01*
X189563000Y-77330000D01*
X189564000Y-77324000D01*
X189566000Y-77318000D01*
X189568000Y-77312000D01*
X189570000Y-77306000D01*
X189573000Y-77301000D01*
X189576000Y-77295000D01*
X189579000Y-77290000D01*
X189583000Y-77284000D01*
X189587000Y-77279000D01*
X189591000Y-77275000D01*
X189595000Y-77270000D01*
X189600000Y-77266000D01*
X189604000Y-77262000D01*
X189609000Y-77258000D01*
X189615000Y-77254000D01*
X189620000Y-77251000D01*
X189626000Y-77248000D01*
X189631000Y-77245000D01*
X189637000Y-77243000D01*
X189643000Y-77241000D01*
X189649000Y-77239000D01*
X189655000Y-77238000D01*
X189661000Y-77236000D01*
X189667000Y-77236000D01*
X189674000Y-77235000D01*
X189680000Y-77235000D01*
X189820000Y-77235000D01*
X189826000Y-77235000D01*
X189833000Y-77236000D01*
G37*
X189833000Y-80016000D02*
X189839000Y-80016000D01*
X189845000Y-80018000D01*
X189851000Y-80019000D01*
X189857000Y-80021000D01*
X189863000Y-80023000D01*
X189869000Y-80025000D01*
X189874000Y-80028000D01*
X189880000Y-80031000D01*
X189885000Y-80034000D01*
X189891000Y-80038000D01*
X189896000Y-80042000D01*
X189900000Y-80046000D01*
X189905000Y-80050000D01*
X189909000Y-80055000D01*
X189913000Y-80059000D01*
X189917000Y-80064000D01*
X189921000Y-80070000D01*
X189924000Y-80075000D01*
X189927000Y-80081000D01*
X189930000Y-80086000D01*
X189932000Y-80092000D01*
X189934000Y-80098000D01*
X189936000Y-80104000D01*
X189937000Y-80110000D01*
X189939000Y-80116000D01*
X189939000Y-80122000D01*
X189940000Y-80129000D01*
X189940000Y-80135000D01*
X189940000Y-80645000D01*
X189940000Y-80651000D01*
X189939000Y-80658000D01*
X189939000Y-80664000D01*
X189937000Y-80670000D01*
X189936000Y-80676000D01*
X189934000Y-80682000D01*
X189932000Y-80688000D01*
X189930000Y-80694000D01*
X189927000Y-80699000D01*
X189924000Y-80705000D01*
X189921000Y-80710000D01*
X189917000Y-80716000D01*
X189913000Y-80721000D01*
X189909000Y-80725000D01*
X189905000Y-80730000D01*
X189900000Y-80734000D01*
X189896000Y-80738000D01*
X189891000Y-80742000D01*
X189885000Y-80746000D01*
X189880000Y-80749000D01*
X189874000Y-80752000D01*
X189869000Y-80755000D01*
X189863000Y-80757000D01*
X189857000Y-80759000D01*
X189851000Y-80761000D01*
X189845000Y-80762000D01*
X189839000Y-80764000D01*
X189833000Y-80764000D01*
X189826000Y-80765000D01*
X189820000Y-80765000D01*
X189680000Y-80765000D01*
X189674000Y-80765000D01*
X189667000Y-80764000D01*
X189661000Y-80764000D01*
X189655000Y-80762000D01*
X189649000Y-80761000D01*
X189643000Y-80759000D01*
X189637000Y-80757000D01*
X189631000Y-80755000D01*
X189626000Y-80752000D01*
X189620000Y-80749000D01*
X189615000Y-80746000D01*
X189609000Y-80742000D01*
X189604000Y-80738000D01*
X189600000Y-80734000D01*
X189595000Y-80730000D01*
X189591000Y-80725000D01*
X189587000Y-80721000D01*
X189583000Y-80716000D01*
X189579000Y-80710000D01*
X189576000Y-80705000D01*
X189573000Y-80699000D01*
X189570000Y-80694000D01*
X189568000Y-80688000D01*
X189566000Y-80682000D01*
X189564000Y-80676000D01*
X189563000Y-80670000D01*
X189561000Y-80664000D01*
X189561000Y-80658000D01*
X189560000Y-80651000D01*
X189560000Y-80645000D01*
X189560000Y-80135000D01*
X189560000Y-80129000D01*
X189561000Y-80122000D01*
X189561000Y-80116000D01*
X189563000Y-80110000D01*
X189564000Y-80104000D01*
X189566000Y-80098000D01*
X189568000Y-80092000D01*
X189570000Y-80086000D01*
X189573000Y-80081000D01*
X189576000Y-80075000D01*
X189579000Y-80070000D01*
X189583000Y-80064000D01*
X189587000Y-80059000D01*
X189591000Y-80055000D01*
X189595000Y-80050000D01*
X189600000Y-80046000D01*
X189604000Y-80042000D01*
X189609000Y-80038000D01*
X189615000Y-80034000D01*
X189620000Y-80031000D01*
X189626000Y-80028000D01*
X189631000Y-80025000D01*
X189637000Y-80023000D01*
X189643000Y-80021000D01*
X189649000Y-80019000D01*
X189655000Y-80018000D01*
X189661000Y-80016000D01*
X189667000Y-80016000D01*
X189674000Y-80015000D01*
X189680000Y-80015000D01*
X189820000Y-80015000D01*
X189826000Y-80015000D01*
X189833000Y-80016000D01*
G36*
X189833000Y-80016000D02*
G01*
X189839000Y-80016000D01*
X189845000Y-80018000D01*
X189851000Y-80019000D01*
X189857000Y-80021000D01*
X189863000Y-80023000D01*
X189869000Y-80025000D01*
X189874000Y-80028000D01*
X189880000Y-80031000D01*
X189885000Y-80034000D01*
X189891000Y-80038000D01*
X189896000Y-80042000D01*
X189900000Y-80046000D01*
X189905000Y-80050000D01*
X189909000Y-80055000D01*
X189913000Y-80059000D01*
X189917000Y-80064000D01*
X189921000Y-80070000D01*
X189924000Y-80075000D01*
X189927000Y-80081000D01*
X189930000Y-80086000D01*
X189932000Y-80092000D01*
X189934000Y-80098000D01*
X189936000Y-80104000D01*
X189937000Y-80110000D01*
X189939000Y-80116000D01*
X189939000Y-80122000D01*
X189940000Y-80129000D01*
X189940000Y-80135000D01*
X189940000Y-80645000D01*
X189940000Y-80651000D01*
X189939000Y-80658000D01*
X189939000Y-80664000D01*
X189937000Y-80670000D01*
X189936000Y-80676000D01*
X189934000Y-80682000D01*
X189932000Y-80688000D01*
X189930000Y-80694000D01*
X189927000Y-80699000D01*
X189924000Y-80705000D01*
X189921000Y-80710000D01*
X189917000Y-80716000D01*
X189913000Y-80721000D01*
X189909000Y-80725000D01*
X189905000Y-80730000D01*
X189900000Y-80734000D01*
X189896000Y-80738000D01*
X189891000Y-80742000D01*
X189885000Y-80746000D01*
X189880000Y-80749000D01*
X189874000Y-80752000D01*
X189869000Y-80755000D01*
X189863000Y-80757000D01*
X189857000Y-80759000D01*
X189851000Y-80761000D01*
X189845000Y-80762000D01*
X189839000Y-80764000D01*
X189833000Y-80764000D01*
X189826000Y-80765000D01*
X189820000Y-80765000D01*
X189680000Y-80765000D01*
X189674000Y-80765000D01*
X189667000Y-80764000D01*
X189661000Y-80764000D01*
X189655000Y-80762000D01*
X189649000Y-80761000D01*
X189643000Y-80759000D01*
X189637000Y-80757000D01*
X189631000Y-80755000D01*
X189626000Y-80752000D01*
X189620000Y-80749000D01*
X189615000Y-80746000D01*
X189609000Y-80742000D01*
X189604000Y-80738000D01*
X189600000Y-80734000D01*
X189595000Y-80730000D01*
X189591000Y-80725000D01*
X189587000Y-80721000D01*
X189583000Y-80716000D01*
X189579000Y-80710000D01*
X189576000Y-80705000D01*
X189573000Y-80699000D01*
X189570000Y-80694000D01*
X189568000Y-80688000D01*
X189566000Y-80682000D01*
X189564000Y-80676000D01*
X189563000Y-80670000D01*
X189561000Y-80664000D01*
X189561000Y-80658000D01*
X189560000Y-80651000D01*
X189560000Y-80645000D01*
X189560000Y-80135000D01*
X189560000Y-80129000D01*
X189561000Y-80122000D01*
X189561000Y-80116000D01*
X189563000Y-80110000D01*
X189564000Y-80104000D01*
X189566000Y-80098000D01*
X189568000Y-80092000D01*
X189570000Y-80086000D01*
X189573000Y-80081000D01*
X189576000Y-80075000D01*
X189579000Y-80070000D01*
X189583000Y-80064000D01*
X189587000Y-80059000D01*
X189591000Y-80055000D01*
X189595000Y-80050000D01*
X189600000Y-80046000D01*
X189604000Y-80042000D01*
X189609000Y-80038000D01*
X189615000Y-80034000D01*
X189620000Y-80031000D01*
X189626000Y-80028000D01*
X189631000Y-80025000D01*
X189637000Y-80023000D01*
X189643000Y-80021000D01*
X189649000Y-80019000D01*
X189655000Y-80018000D01*
X189661000Y-80016000D01*
X189667000Y-80016000D01*
X189674000Y-80015000D01*
X189680000Y-80015000D01*
X189820000Y-80015000D01*
X189826000Y-80015000D01*
X189833000Y-80016000D01*
G37*
X190213000Y-78281000D02*
X190219000Y-78281000D01*
X190225000Y-78283000D01*
X190231000Y-78284000D01*
X190237000Y-78286000D01*
X190243000Y-78288000D01*
X190249000Y-78290000D01*
X190254000Y-78293000D01*
X190260000Y-78296000D01*
X190265000Y-78299000D01*
X190271000Y-78303000D01*
X190276000Y-78307000D01*
X190280000Y-78311000D01*
X190285000Y-78315000D01*
X190289000Y-78320000D01*
X190293000Y-78324000D01*
X190297000Y-78329000D01*
X190301000Y-78335000D01*
X190304000Y-78340000D01*
X190307000Y-78346000D01*
X190310000Y-78351000D01*
X190312000Y-78357000D01*
X190314000Y-78363000D01*
X190316000Y-78369000D01*
X190317000Y-78375000D01*
X190319000Y-78381000D01*
X190319000Y-78387000D01*
X190320000Y-78394000D01*
X190320000Y-78400000D01*
X190320000Y-79600000D01*
X190320000Y-79606000D01*
X190319000Y-79613000D01*
X190319000Y-79619000D01*
X190317000Y-79625000D01*
X190316000Y-79631000D01*
X190314000Y-79637000D01*
X190312000Y-79643000D01*
X190310000Y-79649000D01*
X190307000Y-79654000D01*
X190304000Y-79660000D01*
X190301000Y-79665000D01*
X190297000Y-79671000D01*
X190293000Y-79676000D01*
X190289000Y-79680000D01*
X190285000Y-79685000D01*
X190280000Y-79689000D01*
X190276000Y-79693000D01*
X190271000Y-79697000D01*
X190265000Y-79701000D01*
X190260000Y-79704000D01*
X190254000Y-79707000D01*
X190249000Y-79710000D01*
X190243000Y-79712000D01*
X190237000Y-79714000D01*
X190231000Y-79716000D01*
X190225000Y-79717000D01*
X190219000Y-79719000D01*
X190213000Y-79719000D01*
X190206000Y-79720000D01*
X190200000Y-79720000D01*
X187800000Y-79720000D01*
X187794000Y-79720000D01*
X187787000Y-79719000D01*
X187781000Y-79719000D01*
X187775000Y-79717000D01*
X187769000Y-79716000D01*
X187763000Y-79714000D01*
X187757000Y-79712000D01*
X187751000Y-79710000D01*
X187746000Y-79707000D01*
X187740000Y-79704000D01*
X187735000Y-79701000D01*
X187729000Y-79697000D01*
X187724000Y-79693000D01*
X187720000Y-79689000D01*
X187715000Y-79685000D01*
X187711000Y-79680000D01*
X187707000Y-79676000D01*
X187703000Y-79671000D01*
X187699000Y-79665000D01*
X187696000Y-79660000D01*
X187693000Y-79654000D01*
X187690000Y-79649000D01*
X187688000Y-79643000D01*
X187686000Y-79637000D01*
X187684000Y-79631000D01*
X187683000Y-79625000D01*
X187681000Y-79619000D01*
X187681000Y-79613000D01*
X187680000Y-79606000D01*
X187680000Y-79600000D01*
X187680000Y-78400000D01*
X187680000Y-78394000D01*
X187681000Y-78387000D01*
X187681000Y-78381000D01*
X187683000Y-78375000D01*
X187684000Y-78369000D01*
X187686000Y-78363000D01*
X187688000Y-78357000D01*
X187690000Y-78351000D01*
X187693000Y-78346000D01*
X187696000Y-78340000D01*
X187699000Y-78335000D01*
X187703000Y-78329000D01*
X187707000Y-78324000D01*
X187711000Y-78320000D01*
X187715000Y-78315000D01*
X187720000Y-78311000D01*
X187724000Y-78307000D01*
X187729000Y-78303000D01*
X187735000Y-78299000D01*
X187740000Y-78296000D01*
X187746000Y-78293000D01*
X187751000Y-78290000D01*
X187757000Y-78288000D01*
X187763000Y-78286000D01*
X187769000Y-78284000D01*
X187775000Y-78283000D01*
X187781000Y-78281000D01*
X187787000Y-78281000D01*
X187794000Y-78280000D01*
X187800000Y-78280000D01*
X190200000Y-78280000D01*
X190206000Y-78280000D01*
X190213000Y-78281000D01*
G36*
X190213000Y-78281000D02*
G01*
X190219000Y-78281000D01*
X190225000Y-78283000D01*
X190231000Y-78284000D01*
X190237000Y-78286000D01*
X190243000Y-78288000D01*
X190249000Y-78290000D01*
X190254000Y-78293000D01*
X190260000Y-78296000D01*
X190265000Y-78299000D01*
X190271000Y-78303000D01*
X190276000Y-78307000D01*
X190280000Y-78311000D01*
X190285000Y-78315000D01*
X190289000Y-78320000D01*
X190293000Y-78324000D01*
X190297000Y-78329000D01*
X190301000Y-78335000D01*
X190304000Y-78340000D01*
X190307000Y-78346000D01*
X190310000Y-78351000D01*
X190312000Y-78357000D01*
X190314000Y-78363000D01*
X190316000Y-78369000D01*
X190317000Y-78375000D01*
X190319000Y-78381000D01*
X190319000Y-78387000D01*
X190320000Y-78394000D01*
X190320000Y-78400000D01*
X190320000Y-79600000D01*
X190320000Y-79606000D01*
X190319000Y-79613000D01*
X190319000Y-79619000D01*
X190317000Y-79625000D01*
X190316000Y-79631000D01*
X190314000Y-79637000D01*
X190312000Y-79643000D01*
X190310000Y-79649000D01*
X190307000Y-79654000D01*
X190304000Y-79660000D01*
X190301000Y-79665000D01*
X190297000Y-79671000D01*
X190293000Y-79676000D01*
X190289000Y-79680000D01*
X190285000Y-79685000D01*
X190280000Y-79689000D01*
X190276000Y-79693000D01*
X190271000Y-79697000D01*
X190265000Y-79701000D01*
X190260000Y-79704000D01*
X190254000Y-79707000D01*
X190249000Y-79710000D01*
X190243000Y-79712000D01*
X190237000Y-79714000D01*
X190231000Y-79716000D01*
X190225000Y-79717000D01*
X190219000Y-79719000D01*
X190213000Y-79719000D01*
X190206000Y-79720000D01*
X190200000Y-79720000D01*
X187800000Y-79720000D01*
X187794000Y-79720000D01*
X187787000Y-79719000D01*
X187781000Y-79719000D01*
X187775000Y-79717000D01*
X187769000Y-79716000D01*
X187763000Y-79714000D01*
X187757000Y-79712000D01*
X187751000Y-79710000D01*
X187746000Y-79707000D01*
X187740000Y-79704000D01*
X187735000Y-79701000D01*
X187729000Y-79697000D01*
X187724000Y-79693000D01*
X187720000Y-79689000D01*
X187715000Y-79685000D01*
X187711000Y-79680000D01*
X187707000Y-79676000D01*
X187703000Y-79671000D01*
X187699000Y-79665000D01*
X187696000Y-79660000D01*
X187693000Y-79654000D01*
X187690000Y-79649000D01*
X187688000Y-79643000D01*
X187686000Y-79637000D01*
X187684000Y-79631000D01*
X187683000Y-79625000D01*
X187681000Y-79619000D01*
X187681000Y-79613000D01*
X187680000Y-79606000D01*
X187680000Y-79600000D01*
X187680000Y-78400000D01*
X187680000Y-78394000D01*
X187681000Y-78387000D01*
X187681000Y-78381000D01*
X187683000Y-78375000D01*
X187684000Y-78369000D01*
X187686000Y-78363000D01*
X187688000Y-78357000D01*
X187690000Y-78351000D01*
X187693000Y-78346000D01*
X187696000Y-78340000D01*
X187699000Y-78335000D01*
X187703000Y-78329000D01*
X187707000Y-78324000D01*
X187711000Y-78320000D01*
X187715000Y-78315000D01*
X187720000Y-78311000D01*
X187724000Y-78307000D01*
X187729000Y-78303000D01*
X187735000Y-78299000D01*
X187740000Y-78296000D01*
X187746000Y-78293000D01*
X187751000Y-78290000D01*
X187757000Y-78288000D01*
X187763000Y-78286000D01*
X187769000Y-78284000D01*
X187775000Y-78283000D01*
X187781000Y-78281000D01*
X187787000Y-78281000D01*
X187794000Y-78280000D01*
X187800000Y-78280000D01*
X190200000Y-78280000D01*
X190206000Y-78280000D01*
X190213000Y-78281000D01*
G37*
X190333000Y-77236000D02*
X190339000Y-77236000D01*
X190345000Y-77238000D01*
X190351000Y-77239000D01*
X190357000Y-77241000D01*
X190363000Y-77243000D01*
X190369000Y-77245000D01*
X190374000Y-77248000D01*
X190380000Y-77251000D01*
X190385000Y-77254000D01*
X190391000Y-77258000D01*
X190396000Y-77262000D01*
X190400000Y-77266000D01*
X190405000Y-77270000D01*
X190409000Y-77275000D01*
X190413000Y-77279000D01*
X190417000Y-77284000D01*
X190421000Y-77290000D01*
X190424000Y-77295000D01*
X190427000Y-77301000D01*
X190430000Y-77306000D01*
X190432000Y-77312000D01*
X190434000Y-77318000D01*
X190436000Y-77324000D01*
X190437000Y-77330000D01*
X190439000Y-77336000D01*
X190439000Y-77342000D01*
X190440000Y-77349000D01*
X190440000Y-77355000D01*
X190440000Y-77865000D01*
X190440000Y-77871000D01*
X190439000Y-77878000D01*
X190439000Y-77884000D01*
X190437000Y-77890000D01*
X190436000Y-77896000D01*
X190434000Y-77902000D01*
X190432000Y-77908000D01*
X190430000Y-77914000D01*
X190427000Y-77919000D01*
X190424000Y-77925000D01*
X190421000Y-77930000D01*
X190417000Y-77936000D01*
X190413000Y-77941000D01*
X190409000Y-77945000D01*
X190405000Y-77950000D01*
X190400000Y-77954000D01*
X190396000Y-77958000D01*
X190391000Y-77962000D01*
X190385000Y-77966000D01*
X190380000Y-77969000D01*
X190374000Y-77972000D01*
X190369000Y-77975000D01*
X190363000Y-77977000D01*
X190357000Y-77979000D01*
X190351000Y-77981000D01*
X190345000Y-77982000D01*
X190339000Y-77984000D01*
X190333000Y-77984000D01*
X190326000Y-77985000D01*
X190320000Y-77985000D01*
X190180000Y-77985000D01*
X190174000Y-77985000D01*
X190167000Y-77984000D01*
X190161000Y-77984000D01*
X190155000Y-77982000D01*
X190149000Y-77981000D01*
X190143000Y-77979000D01*
X190137000Y-77977000D01*
X190131000Y-77975000D01*
X190126000Y-77972000D01*
X190120000Y-77969000D01*
X190115000Y-77966000D01*
X190109000Y-77962000D01*
X190104000Y-77958000D01*
X190100000Y-77954000D01*
X190095000Y-77950000D01*
X190091000Y-77945000D01*
X190087000Y-77941000D01*
X190083000Y-77936000D01*
X190079000Y-77930000D01*
X190076000Y-77925000D01*
X190073000Y-77919000D01*
X190070000Y-77914000D01*
X190068000Y-77908000D01*
X190066000Y-77902000D01*
X190064000Y-77896000D01*
X190063000Y-77890000D01*
X190061000Y-77884000D01*
X190061000Y-77878000D01*
X190060000Y-77871000D01*
X190060000Y-77865000D01*
X190060000Y-77355000D01*
X190060000Y-77349000D01*
X190061000Y-77342000D01*
X190061000Y-77336000D01*
X190063000Y-77330000D01*
X190064000Y-77324000D01*
X190066000Y-77318000D01*
X190068000Y-77312000D01*
X190070000Y-77306000D01*
X190073000Y-77301000D01*
X190076000Y-77295000D01*
X190079000Y-77290000D01*
X190083000Y-77284000D01*
X190087000Y-77279000D01*
X190091000Y-77275000D01*
X190095000Y-77270000D01*
X190100000Y-77266000D01*
X190104000Y-77262000D01*
X190109000Y-77258000D01*
X190115000Y-77254000D01*
X190120000Y-77251000D01*
X190126000Y-77248000D01*
X190131000Y-77245000D01*
X190137000Y-77243000D01*
X190143000Y-77241000D01*
X190149000Y-77239000D01*
X190155000Y-77238000D01*
X190161000Y-77236000D01*
X190167000Y-77236000D01*
X190174000Y-77235000D01*
X190180000Y-77235000D01*
X190320000Y-77235000D01*
X190326000Y-77235000D01*
X190333000Y-77236000D01*
G36*
X190333000Y-77236000D02*
G01*
X190339000Y-77236000D01*
X190345000Y-77238000D01*
X190351000Y-77239000D01*
X190357000Y-77241000D01*
X190363000Y-77243000D01*
X190369000Y-77245000D01*
X190374000Y-77248000D01*
X190380000Y-77251000D01*
X190385000Y-77254000D01*
X190391000Y-77258000D01*
X190396000Y-77262000D01*
X190400000Y-77266000D01*
X190405000Y-77270000D01*
X190409000Y-77275000D01*
X190413000Y-77279000D01*
X190417000Y-77284000D01*
X190421000Y-77290000D01*
X190424000Y-77295000D01*
X190427000Y-77301000D01*
X190430000Y-77306000D01*
X190432000Y-77312000D01*
X190434000Y-77318000D01*
X190436000Y-77324000D01*
X190437000Y-77330000D01*
X190439000Y-77336000D01*
X190439000Y-77342000D01*
X190440000Y-77349000D01*
X190440000Y-77355000D01*
X190440000Y-77865000D01*
X190440000Y-77871000D01*
X190439000Y-77878000D01*
X190439000Y-77884000D01*
X190437000Y-77890000D01*
X190436000Y-77896000D01*
X190434000Y-77902000D01*
X190432000Y-77908000D01*
X190430000Y-77914000D01*
X190427000Y-77919000D01*
X190424000Y-77925000D01*
X190421000Y-77930000D01*
X190417000Y-77936000D01*
X190413000Y-77941000D01*
X190409000Y-77945000D01*
X190405000Y-77950000D01*
X190400000Y-77954000D01*
X190396000Y-77958000D01*
X190391000Y-77962000D01*
X190385000Y-77966000D01*
X190380000Y-77969000D01*
X190374000Y-77972000D01*
X190369000Y-77975000D01*
X190363000Y-77977000D01*
X190357000Y-77979000D01*
X190351000Y-77981000D01*
X190345000Y-77982000D01*
X190339000Y-77984000D01*
X190333000Y-77984000D01*
X190326000Y-77985000D01*
X190320000Y-77985000D01*
X190180000Y-77985000D01*
X190174000Y-77985000D01*
X190167000Y-77984000D01*
X190161000Y-77984000D01*
X190155000Y-77982000D01*
X190149000Y-77981000D01*
X190143000Y-77979000D01*
X190137000Y-77977000D01*
X190131000Y-77975000D01*
X190126000Y-77972000D01*
X190120000Y-77969000D01*
X190115000Y-77966000D01*
X190109000Y-77962000D01*
X190104000Y-77958000D01*
X190100000Y-77954000D01*
X190095000Y-77950000D01*
X190091000Y-77945000D01*
X190087000Y-77941000D01*
X190083000Y-77936000D01*
X190079000Y-77930000D01*
X190076000Y-77925000D01*
X190073000Y-77919000D01*
X190070000Y-77914000D01*
X190068000Y-77908000D01*
X190066000Y-77902000D01*
X190064000Y-77896000D01*
X190063000Y-77890000D01*
X190061000Y-77884000D01*
X190061000Y-77878000D01*
X190060000Y-77871000D01*
X190060000Y-77865000D01*
X190060000Y-77355000D01*
X190060000Y-77349000D01*
X190061000Y-77342000D01*
X190061000Y-77336000D01*
X190063000Y-77330000D01*
X190064000Y-77324000D01*
X190066000Y-77318000D01*
X190068000Y-77312000D01*
X190070000Y-77306000D01*
X190073000Y-77301000D01*
X190076000Y-77295000D01*
X190079000Y-77290000D01*
X190083000Y-77284000D01*
X190087000Y-77279000D01*
X190091000Y-77275000D01*
X190095000Y-77270000D01*
X190100000Y-77266000D01*
X190104000Y-77262000D01*
X190109000Y-77258000D01*
X190115000Y-77254000D01*
X190120000Y-77251000D01*
X190126000Y-77248000D01*
X190131000Y-77245000D01*
X190137000Y-77243000D01*
X190143000Y-77241000D01*
X190149000Y-77239000D01*
X190155000Y-77238000D01*
X190161000Y-77236000D01*
X190167000Y-77236000D01*
X190174000Y-77235000D01*
X190180000Y-77235000D01*
X190320000Y-77235000D01*
X190326000Y-77235000D01*
X190333000Y-77236000D01*
G37*
X190333000Y-80016000D02*
X190339000Y-80016000D01*
X190345000Y-80018000D01*
X190351000Y-80019000D01*
X190357000Y-80021000D01*
X190363000Y-80023000D01*
X190369000Y-80025000D01*
X190374000Y-80028000D01*
X190380000Y-80031000D01*
X190385000Y-80034000D01*
X190391000Y-80038000D01*
X190396000Y-80042000D01*
X190400000Y-80046000D01*
X190405000Y-80050000D01*
X190409000Y-80055000D01*
X190413000Y-80059000D01*
X190417000Y-80064000D01*
X190421000Y-80070000D01*
X190424000Y-80075000D01*
X190427000Y-80081000D01*
X190430000Y-80086000D01*
X190432000Y-80092000D01*
X190434000Y-80098000D01*
X190436000Y-80104000D01*
X190437000Y-80110000D01*
X190439000Y-80116000D01*
X190439000Y-80122000D01*
X190440000Y-80129000D01*
X190440000Y-80135000D01*
X190440000Y-80645000D01*
X190440000Y-80651000D01*
X190439000Y-80658000D01*
X190439000Y-80664000D01*
X190437000Y-80670000D01*
X190436000Y-80676000D01*
X190434000Y-80682000D01*
X190432000Y-80688000D01*
X190430000Y-80694000D01*
X190427000Y-80699000D01*
X190424000Y-80705000D01*
X190421000Y-80710000D01*
X190417000Y-80716000D01*
X190413000Y-80721000D01*
X190409000Y-80725000D01*
X190405000Y-80730000D01*
X190400000Y-80734000D01*
X190396000Y-80738000D01*
X190391000Y-80742000D01*
X190385000Y-80746000D01*
X190380000Y-80749000D01*
X190374000Y-80752000D01*
X190369000Y-80755000D01*
X190363000Y-80757000D01*
X190357000Y-80759000D01*
X190351000Y-80761000D01*
X190345000Y-80762000D01*
X190339000Y-80764000D01*
X190333000Y-80764000D01*
X190326000Y-80765000D01*
X190320000Y-80765000D01*
X190180000Y-80765000D01*
X190174000Y-80765000D01*
X190167000Y-80764000D01*
X190161000Y-80764000D01*
X190155000Y-80762000D01*
X190149000Y-80761000D01*
X190143000Y-80759000D01*
X190137000Y-80757000D01*
X190131000Y-80755000D01*
X190126000Y-80752000D01*
X190120000Y-80749000D01*
X190115000Y-80746000D01*
X190109000Y-80742000D01*
X190104000Y-80738000D01*
X190100000Y-80734000D01*
X190095000Y-80730000D01*
X190091000Y-80725000D01*
X190087000Y-80721000D01*
X190083000Y-80716000D01*
X190079000Y-80710000D01*
X190076000Y-80705000D01*
X190073000Y-80699000D01*
X190070000Y-80694000D01*
X190068000Y-80688000D01*
X190066000Y-80682000D01*
X190064000Y-80676000D01*
X190063000Y-80670000D01*
X190061000Y-80664000D01*
X190061000Y-80658000D01*
X190060000Y-80651000D01*
X190060000Y-80645000D01*
X190060000Y-80135000D01*
X190060000Y-80129000D01*
X190061000Y-80122000D01*
X190061000Y-80116000D01*
X190063000Y-80110000D01*
X190064000Y-80104000D01*
X190066000Y-80098000D01*
X190068000Y-80092000D01*
X190070000Y-80086000D01*
X190073000Y-80081000D01*
X190076000Y-80075000D01*
X190079000Y-80070000D01*
X190083000Y-80064000D01*
X190087000Y-80059000D01*
X190091000Y-80055000D01*
X190095000Y-80050000D01*
X190100000Y-80046000D01*
X190104000Y-80042000D01*
X190109000Y-80038000D01*
X190115000Y-80034000D01*
X190120000Y-80031000D01*
X190126000Y-80028000D01*
X190131000Y-80025000D01*
X190137000Y-80023000D01*
X190143000Y-80021000D01*
X190149000Y-80019000D01*
X190155000Y-80018000D01*
X190161000Y-80016000D01*
X190167000Y-80016000D01*
X190174000Y-80015000D01*
X190180000Y-80015000D01*
X190320000Y-80015000D01*
X190326000Y-80015000D01*
X190333000Y-80016000D01*
G36*
X190333000Y-80016000D02*
G01*
X190339000Y-80016000D01*
X190345000Y-80018000D01*
X190351000Y-80019000D01*
X190357000Y-80021000D01*
X190363000Y-80023000D01*
X190369000Y-80025000D01*
X190374000Y-80028000D01*
X190380000Y-80031000D01*
X190385000Y-80034000D01*
X190391000Y-80038000D01*
X190396000Y-80042000D01*
X190400000Y-80046000D01*
X190405000Y-80050000D01*
X190409000Y-80055000D01*
X190413000Y-80059000D01*
X190417000Y-80064000D01*
X190421000Y-80070000D01*
X190424000Y-80075000D01*
X190427000Y-80081000D01*
X190430000Y-80086000D01*
X190432000Y-80092000D01*
X190434000Y-80098000D01*
X190436000Y-80104000D01*
X190437000Y-80110000D01*
X190439000Y-80116000D01*
X190439000Y-80122000D01*
X190440000Y-80129000D01*
X190440000Y-80135000D01*
X190440000Y-80645000D01*
X190440000Y-80651000D01*
X190439000Y-80658000D01*
X190439000Y-80664000D01*
X190437000Y-80670000D01*
X190436000Y-80676000D01*
X190434000Y-80682000D01*
X190432000Y-80688000D01*
X190430000Y-80694000D01*
X190427000Y-80699000D01*
X190424000Y-80705000D01*
X190421000Y-80710000D01*
X190417000Y-80716000D01*
X190413000Y-80721000D01*
X190409000Y-80725000D01*
X190405000Y-80730000D01*
X190400000Y-80734000D01*
X190396000Y-80738000D01*
X190391000Y-80742000D01*
X190385000Y-80746000D01*
X190380000Y-80749000D01*
X190374000Y-80752000D01*
X190369000Y-80755000D01*
X190363000Y-80757000D01*
X190357000Y-80759000D01*
X190351000Y-80761000D01*
X190345000Y-80762000D01*
X190339000Y-80764000D01*
X190333000Y-80764000D01*
X190326000Y-80765000D01*
X190320000Y-80765000D01*
X190180000Y-80765000D01*
X190174000Y-80765000D01*
X190167000Y-80764000D01*
X190161000Y-80764000D01*
X190155000Y-80762000D01*
X190149000Y-80761000D01*
X190143000Y-80759000D01*
X190137000Y-80757000D01*
X190131000Y-80755000D01*
X190126000Y-80752000D01*
X190120000Y-80749000D01*
X190115000Y-80746000D01*
X190109000Y-80742000D01*
X190104000Y-80738000D01*
X190100000Y-80734000D01*
X190095000Y-80730000D01*
X190091000Y-80725000D01*
X190087000Y-80721000D01*
X190083000Y-80716000D01*
X190079000Y-80710000D01*
X190076000Y-80705000D01*
X190073000Y-80699000D01*
X190070000Y-80694000D01*
X190068000Y-80688000D01*
X190066000Y-80682000D01*
X190064000Y-80676000D01*
X190063000Y-80670000D01*
X190061000Y-80664000D01*
X190061000Y-80658000D01*
X190060000Y-80651000D01*
X190060000Y-80645000D01*
X190060000Y-80135000D01*
X190060000Y-80129000D01*
X190061000Y-80122000D01*
X190061000Y-80116000D01*
X190063000Y-80110000D01*
X190064000Y-80104000D01*
X190066000Y-80098000D01*
X190068000Y-80092000D01*
X190070000Y-80086000D01*
X190073000Y-80081000D01*
X190076000Y-80075000D01*
X190079000Y-80070000D01*
X190083000Y-80064000D01*
X190087000Y-80059000D01*
X190091000Y-80055000D01*
X190095000Y-80050000D01*
X190100000Y-80046000D01*
X190104000Y-80042000D01*
X190109000Y-80038000D01*
X190115000Y-80034000D01*
X190120000Y-80031000D01*
X190126000Y-80028000D01*
X190131000Y-80025000D01*
X190137000Y-80023000D01*
X190143000Y-80021000D01*
X190149000Y-80019000D01*
X190155000Y-80018000D01*
X190161000Y-80016000D01*
X190167000Y-80016000D01*
X190174000Y-80015000D01*
X190180000Y-80015000D01*
X190320000Y-80015000D01*
X190326000Y-80015000D01*
X190333000Y-80016000D01*
G37*
%TD*%
D11*
%TO.C,C4*%
X178500000Y-70680000D03*
X178500000Y-71320000D03*
%TD*%
%TO.C,R4*%
X180500000Y-70820000D03*
X180500000Y-70180000D03*
%TD*%
%TO.C,C5*%
X178500000Y-74475000D03*
X178500000Y-73835000D03*
%TD*%
D12*
%TO.C,C3*%
X182250000Y-71165000D03*
X182250000Y-70525000D03*
%TD*%
D13*
%TO.C,VIN*%
X174500000Y-79275000D03*
D14*
X174500000Y-76735000D03*
%TD*%
D11*
%TO.C,R3*%
X183500000Y-78335000D03*
X183500000Y-78975000D03*
%TD*%
D15*
%TO.C,C1*%
X179500000Y-80475000D03*
X179500000Y-77525000D03*
%TD*%
D16*
%TO.C,L1*%
X188000000Y-69500000D03*
X188000000Y-75500000D03*
%TD*%
D17*
%TO.C,R1*%
X180320000Y-75500000D03*
X179680000Y-75500000D03*
%TD*%
D11*
%TO.C,R2*%
X181000000Y-73475000D03*
X181000000Y-72835000D03*
%TD*%
D12*
%TO.C,C2*%
X184000000Y-80665000D03*
X184000000Y-80025000D03*
%TD*%
D13*
%TO.C,VOUT*%
X174500000Y-70460000D03*
D14*
X174500000Y-73000000D03*
%TD*%
M02*
