%TF.GenerationSoftware,KiCad,Pcbnew,8.0.5*%
%TF.CreationDate,2025-09-15T10:24:37+05:30*%
%TF.ProjectId,design_buck_converter,64657369-676e-45f6-9275-636b5f636f6e,rev?*%
%TF.SameCoordinates,Original*%
%TF.FileFunction,Copper,L1,Top*%
%TF.FilePolarity,Positive*%
%FSLAX46Y46*%
G04 Gerber Fmt 4.6, Leading zero omitted, Abs format (unit mm)*
G04 Created by KiCad (PCBNEW 8.0.5) date 2025-09-15 10:24:37*
%MOMM*%
%LPD*%
G01*
G04 APERTURE LIST*
G04 Aperture macros list*
%AMRoundRect*
0 Rectangle with rounded corners*
0 $1 Rounding radius*
0 $2 $3 $4 $5 $6 $7 $8 $9 X,Y pos of 4 corners*
0 Add a 4 corners polygon primitive as box body*
4,1,4,$2,$3,$4,$5,$6,$7,$8,$9,$2,$3,0*
0 Add four circle primitives for the rounded corners*
1,1,$1+$1,$2,$3*
1,1,$1+$1,$4,$5*
1,1,$1+$1,$6,$7*
1,1,$1+$1,$8,$9*
0 Add four rect primitives between the rounded corners*
20,1,$1+$1,$2,$3,$4,$5,0*
20,1,$1+$1,$4,$5,$6,$7,0*
20,1,$1+$1,$6,$7,$8,$9,0*
20,1,$1+$1,$8,$9,$2,$3,0*%
%AMFreePoly0*
4,1,153,0.606581,1.254743,0.608810,1.254000,0.610000,1.254000,0.611581,1.253743,0.613810,1.253000,0.615000,1.253000,0.616581,1.252743,0.619581,1.251743,0.620236,1.251472,0.621920,1.250630,0.624581,1.249743,0.626536,1.248536,0.627964,1.247108,0.629236,1.246472,0.630536,1.245536,0.631964,1.244108,0.633236,1.243472,0.634536,1.242536,0.642536,1.234536,0.643472,1.233236,
0.644108,1.231964,0.645536,1.230536,0.646472,1.229236,0.647108,1.227964,0.648536,1.226536,0.649743,1.224581,0.650630,1.221920,0.651472,1.220236,0.651743,1.219581,0.652743,1.216581,0.653000,1.215000,0.653000,1.213810,0.653743,1.211581,0.654000,1.210000,0.654000,1.208810,0.654743,1.206581,0.655000,1.205000,0.655000,-1.205000,0.654743,-1.206581,0.654000,-1.208810,
0.654000,-1.210000,0.653743,-1.211581,0.653000,-1.213810,0.653000,-1.215000,0.652743,-1.216581,0.651743,-1.219581,0.651472,-1.220236,0.650630,-1.221920,0.649743,-1.224581,0.648536,-1.226536,0.647108,-1.227964,0.646472,-1.229236,0.645536,-1.230536,0.644108,-1.231964,0.643472,-1.233236,0.642536,-1.234536,0.634536,-1.242536,0.633236,-1.243472,0.631964,-1.244108,0.630536,-1.245536,
0.629236,-1.246472,0.627964,-1.247108,0.626536,-1.248536,0.624581,-1.249743,0.621920,-1.250630,0.620236,-1.251472,0.619581,-1.251743,0.616581,-1.252743,0.615000,-1.253000,0.613810,-1.253000,0.611581,-1.253743,0.610000,-1.254000,0.608810,-1.254000,0.606581,-1.254743,0.605000,-1.255000,-0.605000,-1.255000,-0.606581,-1.254743,-0.608810,-1.254000,-0.610000,-1.254000,-0.611581,-1.253743,
-0.613810,-1.253000,-0.615000,-1.253000,-0.616581,-1.252743,-0.619581,-1.251743,-0.620236,-1.251472,-0.621920,-1.250630,-0.624581,-1.249743,-0.626536,-1.248536,-0.627964,-1.247108,-0.629236,-1.246472,-0.630536,-1.245536,-0.631964,-1.244108,-0.633236,-1.243472,-0.634536,-1.242536,-0.642536,-1.234536,-0.643472,-1.233236,-0.644108,-1.231964,-0.645536,-1.230536,-0.646472,-1.229236,-0.647108,-1.227964,
-0.648536,-1.226536,-0.649743,-1.224581,-0.650630,-1.221920,-0.651472,-1.220236,-0.651743,-1.219581,-0.652743,-1.216581,-0.653000,-1.215000,-0.653000,-1.213810,-0.653743,-1.211581,-0.654000,-1.210000,-0.654000,-1.208810,-0.654743,-1.206581,-0.655000,-1.205000,-0.655000,1.205000,-0.654743,1.206581,-0.654000,1.208810,-0.654000,1.210000,-0.653743,1.211581,-0.653000,1.213810,-0.653000,1.215000,
-0.652743,1.216581,-0.651743,1.219581,-0.651472,1.220236,-0.650630,1.221920,-0.649743,1.224581,-0.648536,1.226536,-0.647108,1.227964,-0.646472,1.229236,-0.645536,1.230536,-0.644108,1.231964,-0.643472,1.233236,-0.642536,1.234536,-0.634536,1.242536,-0.633236,1.243472,-0.631964,1.244108,-0.630536,1.245536,-0.629236,1.246472,-0.627964,1.247108,-0.626536,1.248536,-0.624581,1.249743,
-0.621920,1.250630,-0.620236,1.251472,-0.619581,1.251743,-0.616581,1.252743,-0.615000,1.253000,-0.613810,1.253000,-0.611581,1.253743,-0.610000,1.254000,-0.608810,1.254000,-0.606581,1.254743,-0.605000,1.255000,0.605000,1.255000,0.606581,1.254743,0.606581,1.254743,$1*%
G04 Aperture macros list end*
%TA.AperFunction,SMDPad,CuDef*%
%ADD10RoundRect,0.100000X-0.100000X0.130000X-0.100000X-0.130000X0.100000X-0.130000X0.100000X0.130000X0*%
%TD*%
%TA.AperFunction,SMDPad,CuDef*%
%ADD11RoundRect,0.100000X0.100000X-0.130000X0.100000X0.130000X-0.100000X0.130000X-0.100000X-0.130000X0*%
%TD*%
%TA.AperFunction,ComponentPad*%
%ADD12R,1.700000X1.700000*%
%TD*%
%TA.AperFunction,ComponentPad*%
%ADD13O,1.700000X1.700000*%
%TD*%
%TA.AperFunction,SMDPad,CuDef*%
%ADD14RoundRect,0.250000X1.100000X-0.325000X1.100000X0.325000X-1.100000X0.325000X-1.100000X-0.325000X0*%
%TD*%
%TA.AperFunction,SMDPad,CuDef*%
%ADD15R,1.900000X1.400000*%
%TD*%
%TA.AperFunction,SMDPad,CuDef*%
%ADD16RoundRect,0.100000X0.130000X0.100000X-0.130000X0.100000X-0.130000X-0.100000X0.130000X-0.100000X0*%
%TD*%
%TA.AperFunction,SMDPad,CuDef*%
%ADD17RoundRect,0.050000X-0.075000X0.260000X-0.075000X-0.260000X0.075000X-0.260000X0.075000X0.260000X0*%
%TD*%
%TA.AperFunction,SMDPad,CuDef*%
%ADD18FreePoly0,270.000000*%
%TD*%
%TA.AperFunction,ComponentPad*%
%ADD19C,0.300000*%
%TD*%
%TA.AperFunction,ViaPad*%
%ADD20C,0.600000*%
%TD*%
%TA.AperFunction,Conductor*%
%ADD21C,0.180000*%
%TD*%
%TA.AperFunction,Conductor*%
%ADD22C,0.200000*%
%TD*%
%TA.AperFunction,Conductor*%
%ADD23C,0.300000*%
%TD*%
%TA.AperFunction,Conductor*%
%ADD24C,0.700000*%
%TD*%
%TA.AperFunction,Conductor*%
%ADD25C,0.400000*%
%TD*%
%TA.AperFunction,Conductor*%
%ADD26C,0.390000*%
%TD*%
G04 APERTURE END LIST*
D10*
%TO.P,C4,1*%
%TO.N,Net-(C4-Pad1)*%
X178500000Y-70680000D03*
%TO.P,C4,2*%
%TO.N,Net-(U101-FB)*%
X178500000Y-71320000D03*
%TD*%
%TO.P,R4,2*%
%TO.N,Net-(C4-Pad1)*%
X180500000Y-70820000D03*
%TO.P,R4,1*%
%TO.N,Net-(J102-Pin_1)*%
X180500000Y-70180000D03*
%TD*%
%TO.P,C5,2*%
%TO.N,GND*%
X178500000Y-74475000D03*
%TO.P,C5,1*%
%TO.N,Net-(J102-Pin_1)*%
X178500000Y-73835000D03*
%TD*%
D11*
%TO.P,C3,1*%
%TO.N,Net-(U101-BOOT)*%
X182250000Y-71165000D03*
%TO.P,C3,2*%
%TO.N,Net-(C3-Pad2)*%
X182250000Y-70525000D03*
%TD*%
D12*
%TO.P,VIN,1,Pin_1*%
%TO.N,Net-(J101-Pin_1)*%
X174500000Y-79275000D03*
D13*
%TO.P,VIN,2,Pin_2*%
%TO.N,GND*%
X174500000Y-76735000D03*
%TD*%
D10*
%TO.P,R3,1*%
%TO.N,Net-(U101-FB)*%
X183500000Y-78335000D03*
%TO.P,R3,2*%
%TO.N,GND*%
X183500000Y-78975000D03*
%TD*%
D14*
%TO.P,C1,1*%
%TO.N,Net-(J101-Pin_1)*%
X179500000Y-80475000D03*
%TO.P,C1,2*%
%TO.N,GND*%
X179500000Y-77525000D03*
%TD*%
D15*
%TO.P,L1,1,1*%
%TO.N,Net-(C3-Pad2)*%
X188000000Y-69500000D03*
%TO.P,L1,2,2*%
%TO.N,Net-(J102-Pin_1)*%
X188000000Y-75500000D03*
%TD*%
D16*
%TO.P,R1,1*%
%TO.N,Net-(U101-PG)*%
X180320000Y-75500000D03*
%TO.P,R1,2*%
%TO.N,GND*%
X179680000Y-75500000D03*
%TD*%
D10*
%TO.P,R2,2*%
%TO.N,Net-(U101-FB)*%
X181000000Y-73475000D03*
%TO.P,R2,1*%
%TO.N,Net-(J102-Pin_1)*%
X181000000Y-72835000D03*
%TD*%
D17*
%TO.P,IC,1,SW*%
%TO.N,Net-(C3-Pad2)*%
X190250000Y-77610000D03*
%TO.P,IC,2,SW*%
X189750000Y-77610000D03*
%TO.P,IC,3,SW*%
X189250000Y-77610000D03*
%TO.P,IC,4,BOOT*%
%TO.N,Net-(U101-BOOT)*%
X188750000Y-77610000D03*
%TO.P,IC,5,PG*%
%TO.N,Net-(U101-PG)*%
X188250000Y-77610000D03*
%TO.P,IC,6,RT*%
%TO.N,unconnected-(U101-RT-Pad6)*%
X187750000Y-77610000D03*
%TO.P,IC,7,FB*%
%TO.N,Net-(U101-FB)*%
X187750000Y-80390000D03*
%TO.P,IC,8,AGND*%
%TO.N,GND*%
X188250000Y-80390000D03*
%TO.P,IC,9,EN*%
%TO.N,Net-(J101-Pin_1)*%
X188750000Y-80390000D03*
%TO.P,IC,10,VIN*%
X189250000Y-80390000D03*
%TO.P,IC,11,VIN*%
X189750000Y-80390000D03*
%TO.P,IC,12,VIN*%
X190250000Y-80390000D03*
D18*
%TO.P,IC,13,PGND*%
%TO.N,GND*%
X189000000Y-79000000D03*
D19*
%TO.P,IC,14*%
X190000000Y-79000000D03*
%TO.P,IC,15*%
X189000000Y-79000000D03*
%TO.P,IC,16*%
X188000000Y-79000000D03*
%TD*%
D11*
%TO.P,C2,1*%
%TO.N,Net-(J101-Pin_1)*%
X184000000Y-80665000D03*
%TO.P,C2,2*%
%TO.N,GND*%
X184000000Y-80025000D03*
%TD*%
D12*
%TO.P,VOUT,1,Pin_1*%
%TO.N,Net-(J102-Pin_1)*%
X174500000Y-70460000D03*
D13*
%TO.P,VOUT,2,Pin_2*%
%TO.N,GND*%
X174500000Y-73000000D03*
%TD*%
D20*
%TO.N,GND*%
X186492317Y-78283787D03*
X185250000Y-79500000D03*
%TO.N,Net-(U101-FB)*%
X182000000Y-76500000D03*
X182000000Y-75220000D03*
%TO.N,Net-(J102-Pin_1)*%
X178839878Y-72500000D03*
X182000000Y-72000000D03*
X183600000Y-72000000D03*
X180160122Y-72000000D03*
%TD*%
D21*
%TO.N,Net-(U101-BOOT)*%
X188161188Y-76581716D02*
X188750000Y-77170528D01*
X188750000Y-77170528D02*
X188750000Y-77610000D01*
D22*
%TO.N,Net-(J102-Pin_1)*%
X181500000Y-71500000D02*
X182000000Y-72000000D01*
X181500000Y-70980001D02*
X181500000Y-71500000D01*
X180699999Y-70180000D02*
X181500000Y-70980001D01*
X180500000Y-70180000D02*
X180699999Y-70180000D01*
D23*
%TO.N,Net-(U101-BOOT)*%
X182630000Y-75521888D02*
X183678112Y-76570000D01*
X182250000Y-71165000D02*
X182630000Y-71545000D01*
X182630000Y-71545000D02*
X182630000Y-75521888D01*
X183678112Y-76570000D02*
X188149472Y-76570000D01*
X188149472Y-76570000D02*
X188161188Y-76581716D01*
%TO.N,Net-(C4-Pad1)*%
X178500000Y-70680000D02*
X178699999Y-70680000D01*
X178699999Y-70680000D02*
X178839999Y-70820000D01*
X178839999Y-70820000D02*
X180500000Y-70820000D01*
%TO.N,Net-(U101-FB)*%
X180744167Y-73475000D02*
X181000000Y-73475000D01*
X178820000Y-71550833D02*
X180744167Y-73475000D01*
X178820000Y-71320000D02*
X178820000Y-71550833D01*
%TO.N,Net-(J102-Pin_1)*%
X178500000Y-72839878D02*
X178839878Y-72500000D01*
X178500000Y-73835000D02*
X178500000Y-72839878D01*
X178500000Y-73500000D02*
X178500000Y-73835000D01*
X178500000Y-73500000D02*
X177750000Y-72750000D01*
%TO.N,GND*%
X177475000Y-74475000D02*
X177000000Y-74000000D01*
X178500000Y-74475000D02*
X177475000Y-74475000D01*
D22*
%TO.N,Net-(J102-Pin_1)*%
X180995122Y-72835000D02*
X180160122Y-72000000D01*
X181000000Y-72835000D02*
X180995122Y-72835000D01*
D24*
X175460000Y-70460000D02*
X174500000Y-70460000D01*
X177750000Y-72750000D02*
X175460000Y-70460000D01*
%TO.N,GND*%
X176735000Y-76735000D02*
X174500000Y-76735000D01*
X179500000Y-77525000D02*
X177525000Y-77525000D01*
D23*
X182975000Y-78975000D02*
X183500000Y-78975000D01*
X179500000Y-77525000D02*
X181525000Y-77525000D01*
X181525000Y-77525000D02*
X182975000Y-78975000D01*
D24*
X177525000Y-77525000D02*
X176735000Y-76735000D01*
D22*
%TO.N,Net-(J101-Pin_1)*%
X189250000Y-80390000D02*
X188750000Y-80390000D01*
X188750000Y-80390000D02*
X188750000Y-80721360D01*
X190250000Y-80390000D02*
X189750000Y-80390000D01*
D24*
X176975000Y-80475000D02*
X179500000Y-80475000D01*
X174500000Y-79275000D02*
X175775000Y-79275000D01*
X175775000Y-79275000D02*
X176975000Y-80475000D01*
D22*
X189750000Y-80390000D02*
X189250000Y-80390000D01*
X188471360Y-81000000D02*
X184780710Y-81000000D01*
X184445710Y-80665000D02*
X184000000Y-80665000D01*
D25*
X179690000Y-80665000D02*
X179500000Y-80475000D01*
X184000000Y-80665000D02*
X179690000Y-80665000D01*
D22*
X184780710Y-81000000D02*
X184445710Y-80665000D01*
X188750000Y-80721360D02*
X188471360Y-81000000D01*
D24*
%TO.N,GND*%
X174500000Y-73000000D02*
X176000000Y-73000000D01*
D21*
X188250000Y-80041470D02*
X188250000Y-80390000D01*
D23*
X183500000Y-78975000D02*
X183725000Y-78975000D01*
X184000000Y-80025000D02*
X184725000Y-80025000D01*
X183725000Y-78975000D02*
X184000000Y-79250000D01*
D24*
X176000000Y-73000000D02*
X177000000Y-74000000D01*
D23*
X184725000Y-80025000D02*
X185250000Y-79500000D01*
X184000000Y-79250000D02*
X184000000Y-80025000D01*
D26*
X179680000Y-75500000D02*
X179680000Y-77345000D01*
D21*
X186492317Y-78283787D02*
X188250000Y-80041470D01*
D24*
X174500000Y-73000000D02*
X174500000Y-76735000D01*
D23*
X179680000Y-77345000D02*
X179500000Y-77525000D01*
%TO.N,Net-(C3-Pad2)*%
X189280000Y-70780000D02*
X189280000Y-76470000D01*
D22*
X189250000Y-77610000D02*
X189250000Y-76500000D01*
D23*
X185975000Y-70525000D02*
X187000000Y-69500000D01*
X185975000Y-70525000D02*
X182250000Y-70525000D01*
X188000000Y-69500000D02*
X189280000Y-70780000D01*
D22*
X190250000Y-77610000D02*
X189250000Y-77610000D01*
D23*
X189280000Y-76470000D02*
X189250000Y-76500000D01*
X187000000Y-69500000D02*
X188000000Y-69500000D01*
D22*
%TO.N,Net-(U101-FB)*%
X184905244Y-78335000D02*
X186960244Y-80390000D01*
D23*
X178820000Y-71320000D02*
X178500000Y-71320000D01*
D22*
X183500000Y-78335000D02*
X184905244Y-78335000D01*
D23*
X182000000Y-76500000D02*
X183500000Y-78000000D01*
D22*
X186960244Y-80390000D02*
X187750000Y-80390000D01*
D23*
X181000000Y-74000000D02*
X181000000Y-73475000D01*
X183500000Y-78335000D02*
X183500000Y-78000000D01*
X181000000Y-74000000D02*
X182000000Y-75000000D01*
D22*
X182000000Y-75000000D02*
X182000000Y-75220000D01*
D23*
%TO.N,Net-(J102-Pin_1)*%
X186100000Y-75500000D02*
X183600000Y-73000000D01*
X188000000Y-75500000D02*
X186100000Y-75500000D01*
D22*
X181835000Y-72000000D02*
X181000000Y-72835000D01*
X182000000Y-72000000D02*
X181835000Y-72000000D01*
D23*
X183600000Y-73000000D02*
X183600000Y-72000000D01*
D22*
%TO.N,Net-(U101-PG)*%
X188250000Y-77610000D02*
X188250000Y-77278640D01*
X187971360Y-77000000D02*
X183500000Y-77000000D01*
X183500000Y-77000000D02*
X182320000Y-75820000D01*
X188250000Y-77278640D02*
X187971360Y-77000000D01*
X180320000Y-75500000D02*
X180640000Y-75820000D01*
X180640000Y-75820000D02*
X182320000Y-75820000D01*
%TD*%
M02*
