%TF.GenerationSoftware,KiCad,Pcbnew,8.0.5*%
%TF.CreationDate,2025-09-15T10:24:37+05:30*%
%TF.ProjectId,design_buck_converter,64657369-676e-45f6-9275-636b5f636f6e,rev?*%
%TF.SameCoordinates,Original*%
%TF.FileFunction,Paste,Top*%
%TF.FilePolarity,Positive*%
%FSLAX46Y46*%
G04 Gerber Fmt 4.6, Leading zero omitted, Abs format (unit mm)*
G04 Created by KiCad (PCBNEW 8.0.5) date 2025-09-15 10:24:37*
%MOMM*%
%LPD*%
G01*
G04 APERTURE LIST*
G04 Aperture macros list*
%AMRoundRect*
0 Rectangle with rounded corners*
0 $1 Rounding radius*
0 $2 $3 $4 $5 $6 $7 $8 $9 X,Y pos of 4 corners*
0 Add a 4 corners polygon primitive as box body*
4,1,4,$2,$3,$4,$5,$6,$7,$8,$9,$2,$3,0*
0 Add four circle primitives for the rounded corners*
1,1,$1+$1,$2,$3*
1,1,$1+$1,$4,$5*
1,1,$1+$1,$6,$7*
1,1,$1+$1,$8,$9*
0 Add four rect primitives between the rounded corners*
20,1,$1+$1,$2,$3,$4,$5,0*
20,1,$1+$1,$4,$5,$6,$7,0*
20,1,$1+$1,$6,$7,$8,$9,0*
20,1,$1+$1,$8,$9,$2,$3,0*%
G04 Aperture macros list end*
%ADD10C,0.010000*%
%ADD11RoundRect,0.079500X-0.100500X0.079500X-0.100500X-0.079500X0.100500X-0.079500X0.100500X0.079500X0*%
%ADD12RoundRect,0.079500X0.100500X-0.079500X0.100500X0.079500X-0.100500X0.079500X-0.100500X-0.079500X0*%
%ADD13RoundRect,0.250000X1.100000X-0.325000X1.100000X0.325000X-1.100000X0.325000X-1.100000X-0.325000X0*%
%ADD14R,1.900000X1.400000*%
%ADD15RoundRect,0.079500X0.079500X0.100500X-0.079500X0.100500X-0.079500X-0.100500X0.079500X-0.100500X0*%
%ADD16RoundRect,0.050000X-0.075000X0.260000X-0.075000X-0.260000X0.075000X-0.260000X0.075000X0.260000X0*%
G04 APERTURE END LIST*
D10*
%TO.C,IC*%
X188858000Y-78396000D02*
X188860000Y-78396000D01*
X188863000Y-78397000D01*
X188865000Y-78397000D01*
X188868000Y-78398000D01*
X188870000Y-78399000D01*
X188873000Y-78400000D01*
X188875000Y-78402000D01*
X188877000Y-78403000D01*
X188879000Y-78405000D01*
X188881000Y-78406000D01*
X188883000Y-78408000D01*
X188885000Y-78410000D01*
X188887000Y-78412000D01*
X188889000Y-78414000D01*
X188890000Y-78416000D01*
X188892000Y-78418000D01*
X188893000Y-78420000D01*
X188895000Y-78422000D01*
X188896000Y-78425000D01*
X188897000Y-78427000D01*
X188898000Y-78430000D01*
X188898000Y-78432000D01*
X188899000Y-78435000D01*
X188899000Y-78437000D01*
X188900000Y-78440000D01*
X188900000Y-78442000D01*
X188900000Y-78445000D01*
X188900000Y-79555000D01*
X188900000Y-79558000D01*
X188900000Y-79560000D01*
X188899000Y-79563000D01*
X188899000Y-79565000D01*
X188898000Y-79568000D01*
X188898000Y-79570000D01*
X188897000Y-79573000D01*
X188896000Y-79575000D01*
X188895000Y-79578000D01*
X188893000Y-79580000D01*
X188892000Y-79582000D01*
X188890000Y-79584000D01*
X188889000Y-79586000D01*
X188887000Y-79588000D01*
X188885000Y-79590000D01*
X188883000Y-79592000D01*
X188881000Y-79594000D01*
X188879000Y-79595000D01*
X188877000Y-79597000D01*
X188875000Y-79598000D01*
X188873000Y-79600000D01*
X188870000Y-79601000D01*
X188868000Y-79602000D01*
X188865000Y-79603000D01*
X188863000Y-79603000D01*
X188860000Y-79604000D01*
X188858000Y-79604000D01*
X188855000Y-79605000D01*
X188853000Y-79605000D01*
X188850000Y-79605000D01*
X187850000Y-79605000D01*
X187847000Y-79605000D01*
X187845000Y-79605000D01*
X187842000Y-79604000D01*
X187840000Y-79604000D01*
X187837000Y-79603000D01*
X187835000Y-79603000D01*
X187832000Y-79602000D01*
X187830000Y-79601000D01*
X187827000Y-79600000D01*
X187825000Y-79598000D01*
X187823000Y-79597000D01*
X187821000Y-79595000D01*
X187819000Y-79594000D01*
X187817000Y-79592000D01*
X187815000Y-79590000D01*
X187813000Y-79588000D01*
X187811000Y-79586000D01*
X187810000Y-79584000D01*
X187808000Y-79582000D01*
X187807000Y-79580000D01*
X187805000Y-79578000D01*
X187804000Y-79575000D01*
X187803000Y-79573000D01*
X187802000Y-79570000D01*
X187802000Y-79568000D01*
X187801000Y-79565000D01*
X187801000Y-79563000D01*
X187800000Y-79560000D01*
X187800000Y-79558000D01*
X187800000Y-79555000D01*
X187800000Y-78445000D01*
X187800000Y-78442000D01*
X187800000Y-78440000D01*
X187801000Y-78437000D01*
X187801000Y-78435000D01*
X187802000Y-78432000D01*
X187802000Y-78430000D01*
X187803000Y-78427000D01*
X187804000Y-78425000D01*
X187805000Y-78422000D01*
X187807000Y-78420000D01*
X187808000Y-78418000D01*
X187810000Y-78416000D01*
X187811000Y-78414000D01*
X187813000Y-78412000D01*
X187815000Y-78410000D01*
X187817000Y-78408000D01*
X187819000Y-78406000D01*
X187821000Y-78405000D01*
X187823000Y-78403000D01*
X187825000Y-78402000D01*
X187827000Y-78400000D01*
X187830000Y-78399000D01*
X187832000Y-78398000D01*
X187835000Y-78397000D01*
X187837000Y-78397000D01*
X187840000Y-78396000D01*
X187842000Y-78396000D01*
X187845000Y-78395000D01*
X187847000Y-78395000D01*
X187850000Y-78395000D01*
X188850000Y-78395000D01*
X188853000Y-78395000D01*
X188855000Y-78395000D01*
X188858000Y-78396000D01*
G36*
X188858000Y-78396000D02*
G01*
X188860000Y-78396000D01*
X188863000Y-78397000D01*
X188865000Y-78397000D01*
X188868000Y-78398000D01*
X188870000Y-78399000D01*
X188873000Y-78400000D01*
X188875000Y-78402000D01*
X188877000Y-78403000D01*
X188879000Y-78405000D01*
X188881000Y-78406000D01*
X188883000Y-78408000D01*
X188885000Y-78410000D01*
X188887000Y-78412000D01*
X188889000Y-78414000D01*
X188890000Y-78416000D01*
X188892000Y-78418000D01*
X188893000Y-78420000D01*
X188895000Y-78422000D01*
X188896000Y-78425000D01*
X188897000Y-78427000D01*
X188898000Y-78430000D01*
X188898000Y-78432000D01*
X188899000Y-78435000D01*
X188899000Y-78437000D01*
X188900000Y-78440000D01*
X188900000Y-78442000D01*
X188900000Y-78445000D01*
X188900000Y-79555000D01*
X188900000Y-79558000D01*
X188900000Y-79560000D01*
X188899000Y-79563000D01*
X188899000Y-79565000D01*
X188898000Y-79568000D01*
X188898000Y-79570000D01*
X188897000Y-79573000D01*
X188896000Y-79575000D01*
X188895000Y-79578000D01*
X188893000Y-79580000D01*
X188892000Y-79582000D01*
X188890000Y-79584000D01*
X188889000Y-79586000D01*
X188887000Y-79588000D01*
X188885000Y-79590000D01*
X188883000Y-79592000D01*
X188881000Y-79594000D01*
X188879000Y-79595000D01*
X188877000Y-79597000D01*
X188875000Y-79598000D01*
X188873000Y-79600000D01*
X188870000Y-79601000D01*
X188868000Y-79602000D01*
X188865000Y-79603000D01*
X188863000Y-79603000D01*
X188860000Y-79604000D01*
X188858000Y-79604000D01*
X188855000Y-79605000D01*
X188853000Y-79605000D01*
X188850000Y-79605000D01*
X187850000Y-79605000D01*
X187847000Y-79605000D01*
X187845000Y-79605000D01*
X187842000Y-79604000D01*
X187840000Y-79604000D01*
X187837000Y-79603000D01*
X187835000Y-79603000D01*
X187832000Y-79602000D01*
X187830000Y-79601000D01*
X187827000Y-79600000D01*
X187825000Y-79598000D01*
X187823000Y-79597000D01*
X187821000Y-79595000D01*
X187819000Y-79594000D01*
X187817000Y-79592000D01*
X187815000Y-79590000D01*
X187813000Y-79588000D01*
X187811000Y-79586000D01*
X187810000Y-79584000D01*
X187808000Y-79582000D01*
X187807000Y-79580000D01*
X187805000Y-79578000D01*
X187804000Y-79575000D01*
X187803000Y-79573000D01*
X187802000Y-79570000D01*
X187802000Y-79568000D01*
X187801000Y-79565000D01*
X187801000Y-79563000D01*
X187800000Y-79560000D01*
X187800000Y-79558000D01*
X187800000Y-79555000D01*
X187800000Y-78445000D01*
X187800000Y-78442000D01*
X187800000Y-78440000D01*
X187801000Y-78437000D01*
X187801000Y-78435000D01*
X187802000Y-78432000D01*
X187802000Y-78430000D01*
X187803000Y-78427000D01*
X187804000Y-78425000D01*
X187805000Y-78422000D01*
X187807000Y-78420000D01*
X187808000Y-78418000D01*
X187810000Y-78416000D01*
X187811000Y-78414000D01*
X187813000Y-78412000D01*
X187815000Y-78410000D01*
X187817000Y-78408000D01*
X187819000Y-78406000D01*
X187821000Y-78405000D01*
X187823000Y-78403000D01*
X187825000Y-78402000D01*
X187827000Y-78400000D01*
X187830000Y-78399000D01*
X187832000Y-78398000D01*
X187835000Y-78397000D01*
X187837000Y-78397000D01*
X187840000Y-78396000D01*
X187842000Y-78396000D01*
X187845000Y-78395000D01*
X187847000Y-78395000D01*
X187850000Y-78395000D01*
X188850000Y-78395000D01*
X188853000Y-78395000D01*
X188855000Y-78395000D01*
X188858000Y-78396000D01*
G37*
X190158000Y-78396000D02*
X190160000Y-78396000D01*
X190163000Y-78397000D01*
X190165000Y-78397000D01*
X190168000Y-78398000D01*
X190170000Y-78399000D01*
X190173000Y-78400000D01*
X190175000Y-78402000D01*
X190177000Y-78403000D01*
X190179000Y-78405000D01*
X190181000Y-78406000D01*
X190183000Y-78408000D01*
X190185000Y-78410000D01*
X190187000Y-78412000D01*
X190189000Y-78414000D01*
X190190000Y-78416000D01*
X190192000Y-78418000D01*
X190193000Y-78420000D01*
X190195000Y-78422000D01*
X190196000Y-78425000D01*
X190197000Y-78427000D01*
X190198000Y-78430000D01*
X190198000Y-78432000D01*
X190199000Y-78435000D01*
X190199000Y-78437000D01*
X190200000Y-78440000D01*
X190200000Y-78442000D01*
X190200000Y-78445000D01*
X190200000Y-79555000D01*
X190200000Y-79558000D01*
X190200000Y-79560000D01*
X190199000Y-79563000D01*
X190199000Y-79565000D01*
X190198000Y-79568000D01*
X190198000Y-79570000D01*
X190197000Y-79573000D01*
X190196000Y-79575000D01*
X190195000Y-79578000D01*
X190193000Y-79580000D01*
X190192000Y-79582000D01*
X190190000Y-79584000D01*
X190189000Y-79586000D01*
X190187000Y-79588000D01*
X190185000Y-79590000D01*
X190183000Y-79592000D01*
X190181000Y-79594000D01*
X190179000Y-79595000D01*
X190177000Y-79597000D01*
X190175000Y-79598000D01*
X190173000Y-79600000D01*
X190170000Y-79601000D01*
X190168000Y-79602000D01*
X190165000Y-79603000D01*
X190163000Y-79603000D01*
X190160000Y-79604000D01*
X190158000Y-79604000D01*
X190155000Y-79605000D01*
X190153000Y-79605000D01*
X190150000Y-79605000D01*
X189150000Y-79605000D01*
X189147000Y-79605000D01*
X189145000Y-79605000D01*
X189142000Y-79604000D01*
X189140000Y-79604000D01*
X189137000Y-79603000D01*
X189135000Y-79603000D01*
X189132000Y-79602000D01*
X189130000Y-79601000D01*
X189127000Y-79600000D01*
X189125000Y-79598000D01*
X189123000Y-79597000D01*
X189121000Y-79595000D01*
X189119000Y-79594000D01*
X189117000Y-79592000D01*
X189115000Y-79590000D01*
X189113000Y-79588000D01*
X189111000Y-79586000D01*
X189110000Y-79584000D01*
X189108000Y-79582000D01*
X189107000Y-79580000D01*
X189105000Y-79578000D01*
X189104000Y-79575000D01*
X189103000Y-79573000D01*
X189102000Y-79570000D01*
X189102000Y-79568000D01*
X189101000Y-79565000D01*
X189101000Y-79563000D01*
X189100000Y-79560000D01*
X189100000Y-79558000D01*
X189100000Y-79555000D01*
X189100000Y-78445000D01*
X189100000Y-78442000D01*
X189100000Y-78440000D01*
X189101000Y-78437000D01*
X189101000Y-78435000D01*
X189102000Y-78432000D01*
X189102000Y-78430000D01*
X189103000Y-78427000D01*
X189104000Y-78425000D01*
X189105000Y-78422000D01*
X189107000Y-78420000D01*
X189108000Y-78418000D01*
X189110000Y-78416000D01*
X189111000Y-78414000D01*
X189113000Y-78412000D01*
X189115000Y-78410000D01*
X189117000Y-78408000D01*
X189119000Y-78406000D01*
X189121000Y-78405000D01*
X189123000Y-78403000D01*
X189125000Y-78402000D01*
X189127000Y-78400000D01*
X189130000Y-78399000D01*
X189132000Y-78398000D01*
X189135000Y-78397000D01*
X189137000Y-78397000D01*
X189140000Y-78396000D01*
X189142000Y-78396000D01*
X189145000Y-78395000D01*
X189147000Y-78395000D01*
X189150000Y-78395000D01*
X190150000Y-78395000D01*
X190153000Y-78395000D01*
X190155000Y-78395000D01*
X190158000Y-78396000D01*
G36*
X190158000Y-78396000D02*
G01*
X190160000Y-78396000D01*
X190163000Y-78397000D01*
X190165000Y-78397000D01*
X190168000Y-78398000D01*
X190170000Y-78399000D01*
X190173000Y-78400000D01*
X190175000Y-78402000D01*
X190177000Y-78403000D01*
X190179000Y-78405000D01*
X190181000Y-78406000D01*
X190183000Y-78408000D01*
X190185000Y-78410000D01*
X190187000Y-78412000D01*
X190189000Y-78414000D01*
X190190000Y-78416000D01*
X190192000Y-78418000D01*
X190193000Y-78420000D01*
X190195000Y-78422000D01*
X190196000Y-78425000D01*
X190197000Y-78427000D01*
X190198000Y-78430000D01*
X190198000Y-78432000D01*
X190199000Y-78435000D01*
X190199000Y-78437000D01*
X190200000Y-78440000D01*
X190200000Y-78442000D01*
X190200000Y-78445000D01*
X190200000Y-79555000D01*
X190200000Y-79558000D01*
X190200000Y-79560000D01*
X190199000Y-79563000D01*
X190199000Y-79565000D01*
X190198000Y-79568000D01*
X190198000Y-79570000D01*
X190197000Y-79573000D01*
X190196000Y-79575000D01*
X190195000Y-79578000D01*
X190193000Y-79580000D01*
X190192000Y-79582000D01*
X190190000Y-79584000D01*
X190189000Y-79586000D01*
X190187000Y-79588000D01*
X190185000Y-79590000D01*
X190183000Y-79592000D01*
X190181000Y-79594000D01*
X190179000Y-79595000D01*
X190177000Y-79597000D01*
X190175000Y-79598000D01*
X190173000Y-79600000D01*
X190170000Y-79601000D01*
X190168000Y-79602000D01*
X190165000Y-79603000D01*
X190163000Y-79603000D01*
X190160000Y-79604000D01*
X190158000Y-79604000D01*
X190155000Y-79605000D01*
X190153000Y-79605000D01*
X190150000Y-79605000D01*
X189150000Y-79605000D01*
X189147000Y-79605000D01*
X189145000Y-79605000D01*
X189142000Y-79604000D01*
X189140000Y-79604000D01*
X189137000Y-79603000D01*
X189135000Y-79603000D01*
X189132000Y-79602000D01*
X189130000Y-79601000D01*
X189127000Y-79600000D01*
X189125000Y-79598000D01*
X189123000Y-79597000D01*
X189121000Y-79595000D01*
X189119000Y-79594000D01*
X189117000Y-79592000D01*
X189115000Y-79590000D01*
X189113000Y-79588000D01*
X189111000Y-79586000D01*
X189110000Y-79584000D01*
X189108000Y-79582000D01*
X189107000Y-79580000D01*
X189105000Y-79578000D01*
X189104000Y-79575000D01*
X189103000Y-79573000D01*
X189102000Y-79570000D01*
X189102000Y-79568000D01*
X189101000Y-79565000D01*
X189101000Y-79563000D01*
X189100000Y-79560000D01*
X189100000Y-79558000D01*
X189100000Y-79555000D01*
X189100000Y-78445000D01*
X189100000Y-78442000D01*
X189100000Y-78440000D01*
X189101000Y-78437000D01*
X189101000Y-78435000D01*
X189102000Y-78432000D01*
X189102000Y-78430000D01*
X189103000Y-78427000D01*
X189104000Y-78425000D01*
X189105000Y-78422000D01*
X189107000Y-78420000D01*
X189108000Y-78418000D01*
X189110000Y-78416000D01*
X189111000Y-78414000D01*
X189113000Y-78412000D01*
X189115000Y-78410000D01*
X189117000Y-78408000D01*
X189119000Y-78406000D01*
X189121000Y-78405000D01*
X189123000Y-78403000D01*
X189125000Y-78402000D01*
X189127000Y-78400000D01*
X189130000Y-78399000D01*
X189132000Y-78398000D01*
X189135000Y-78397000D01*
X189137000Y-78397000D01*
X189140000Y-78396000D01*
X189142000Y-78396000D01*
X189145000Y-78395000D01*
X189147000Y-78395000D01*
X189150000Y-78395000D01*
X190150000Y-78395000D01*
X190153000Y-78395000D01*
X190155000Y-78395000D01*
X190158000Y-78396000D01*
G37*
%TD*%
D11*
%TO.C,C4*%
X178500000Y-70655000D03*
X178500000Y-71345000D03*
%TD*%
%TO.C,R4*%
X180500000Y-70845000D03*
X180500000Y-70155000D03*
%TD*%
%TO.C,C5*%
X178500000Y-74500000D03*
X178500000Y-73810000D03*
%TD*%
D12*
%TO.C,C3*%
X182250000Y-71190000D03*
X182250000Y-70500000D03*
%TD*%
D11*
%TO.C,R3*%
X183500000Y-78310000D03*
X183500000Y-79000000D03*
%TD*%
D13*
%TO.C,C1*%
X179500000Y-80475000D03*
X179500000Y-77525000D03*
%TD*%
D14*
%TO.C,L1*%
X188000000Y-69500000D03*
X188000000Y-75500000D03*
%TD*%
D15*
%TO.C,R1*%
X180345000Y-75500000D03*
X179655000Y-75500000D03*
%TD*%
D11*
%TO.C,R2*%
X181000000Y-73500000D03*
X181000000Y-72810000D03*
%TD*%
D16*
%TO.C,IC*%
X190250000Y-77610000D03*
X189750000Y-77610000D03*
X189250000Y-77610000D03*
X188750000Y-77610000D03*
X188250000Y-77610000D03*
X187750000Y-77610000D03*
X187750000Y-80390000D03*
X188250000Y-80390000D03*
X188750000Y-80390000D03*
X189250000Y-80390000D03*
X189750000Y-80390000D03*
X190250000Y-80390000D03*
%TD*%
D12*
%TO.C,C2*%
X184000000Y-80690000D03*
X184000000Y-80000000D03*
%TD*%
M02*
