%TF.GenerationSoftware,KiCad,Pcbnew,8.0.5*%
%TF.CreationDate,2025-09-15T10:24:37+05:30*%
%TF.ProjectId,design_buck_converter,64657369-676e-45f6-9275-636b5f636f6e,rev?*%
%TF.SameCoordinates,Original*%
%TF.FileFunction,Legend,Top*%
%TF.FilePolarity,Positive*%
%FSLAX46Y46*%
G04 Gerber Fmt 4.6, Leading zero omitted, Abs format (unit mm)*
G04 Created by KiCad (PCBNEW 8.0.5) date 2025-09-15 10:24:37*
%MOMM*%
%LPD*%
G01*
G04 APERTURE LIST*
%ADD10C,0.100000*%
%ADD11C,0.125000*%
%ADD12C,0.150000*%
%ADD13C,0.120000*%
%ADD14C,0.127000*%
%ADD15C,0.200000*%
G04 APERTURE END LIST*
D10*
X176303884Y-80491466D02*
X177065789Y-80491466D01*
X176684836Y-80872419D02*
X176684836Y-80110514D01*
X176491466Y-74196115D02*
X176491466Y-73434211D01*
X176303884Y-69491466D02*
X177065789Y-69491466D01*
X176684836Y-69872419D02*
X176684836Y-69110514D01*
X176491466Y-76196115D02*
X176491466Y-75434211D01*
D11*
X177787404Y-71133332D02*
X177825500Y-71171428D01*
X177825500Y-71171428D02*
X177863595Y-71285713D01*
X177863595Y-71285713D02*
X177863595Y-71361904D01*
X177863595Y-71361904D02*
X177825500Y-71476190D01*
X177825500Y-71476190D02*
X177749309Y-71552380D01*
X177749309Y-71552380D02*
X177673119Y-71590475D01*
X177673119Y-71590475D02*
X177520738Y-71628571D01*
X177520738Y-71628571D02*
X177406452Y-71628571D01*
X177406452Y-71628571D02*
X177254071Y-71590475D01*
X177254071Y-71590475D02*
X177177880Y-71552380D01*
X177177880Y-71552380D02*
X177101690Y-71476190D01*
X177101690Y-71476190D02*
X177063595Y-71361904D01*
X177063595Y-71361904D02*
X177063595Y-71285713D01*
X177063595Y-71285713D02*
X177101690Y-71171428D01*
X177101690Y-71171428D02*
X177139785Y-71133332D01*
X177330261Y-70447618D02*
X177863595Y-70447618D01*
X177025500Y-70638094D02*
X177596928Y-70828571D01*
X177596928Y-70828571D02*
X177596928Y-70333332D01*
D12*
X179862295Y-70633332D02*
X179481342Y-70899999D01*
X179862295Y-71090475D02*
X179062295Y-71090475D01*
X179062295Y-71090475D02*
X179062295Y-70785713D01*
X179062295Y-70785713D02*
X179100390Y-70709523D01*
X179100390Y-70709523D02*
X179138485Y-70671428D01*
X179138485Y-70671428D02*
X179214676Y-70633332D01*
X179214676Y-70633332D02*
X179328961Y-70633332D01*
X179328961Y-70633332D02*
X179405152Y-70671428D01*
X179405152Y-70671428D02*
X179443247Y-70709523D01*
X179443247Y-70709523D02*
X179481342Y-70785713D01*
X179481342Y-70785713D02*
X179481342Y-71090475D01*
X179328961Y-69947618D02*
X179862295Y-69947618D01*
X179024200Y-70138094D02*
X179595628Y-70328571D01*
X179595628Y-70328571D02*
X179595628Y-69833332D01*
X181786104Y-71133332D02*
X181824200Y-71171428D01*
X181824200Y-71171428D02*
X181862295Y-71285713D01*
X181862295Y-71285713D02*
X181862295Y-71361904D01*
X181862295Y-71361904D02*
X181824200Y-71476190D01*
X181824200Y-71476190D02*
X181748009Y-71552380D01*
X181748009Y-71552380D02*
X181671819Y-71590475D01*
X181671819Y-71590475D02*
X181519438Y-71628571D01*
X181519438Y-71628571D02*
X181405152Y-71628571D01*
X181405152Y-71628571D02*
X181252771Y-71590475D01*
X181252771Y-71590475D02*
X181176580Y-71552380D01*
X181176580Y-71552380D02*
X181100390Y-71476190D01*
X181100390Y-71476190D02*
X181062295Y-71361904D01*
X181062295Y-71361904D02*
X181062295Y-71285713D01*
X181062295Y-71285713D02*
X181100390Y-71171428D01*
X181100390Y-71171428D02*
X181138485Y-71133332D01*
X181062295Y-70866666D02*
X181062295Y-70371428D01*
X181062295Y-70371428D02*
X181367057Y-70638094D01*
X181367057Y-70638094D02*
X181367057Y-70523809D01*
X181367057Y-70523809D02*
X181405152Y-70447618D01*
X181405152Y-70447618D02*
X181443247Y-70409523D01*
X181443247Y-70409523D02*
X181519438Y-70371428D01*
X181519438Y-70371428D02*
X181709914Y-70371428D01*
X181709914Y-70371428D02*
X181786104Y-70409523D01*
X181786104Y-70409523D02*
X181824200Y-70447618D01*
X181824200Y-70447618D02*
X181862295Y-70523809D01*
X181862295Y-70523809D02*
X181862295Y-70752380D01*
X181862295Y-70752380D02*
X181824200Y-70828571D01*
X181824200Y-70828571D02*
X181786104Y-70866666D01*
X176062295Y-78651189D02*
X176862295Y-78384522D01*
X176862295Y-78384522D02*
X176062295Y-78117856D01*
X176862295Y-77851189D02*
X176062295Y-77851189D01*
X176862295Y-77470237D02*
X176062295Y-77470237D01*
X176062295Y-77470237D02*
X176862295Y-77013094D01*
X176862295Y-77013094D02*
X176062295Y-77013094D01*
X184862295Y-78633332D02*
X184481342Y-78899999D01*
X184862295Y-79090475D02*
X184062295Y-79090475D01*
X184062295Y-79090475D02*
X184062295Y-78785713D01*
X184062295Y-78785713D02*
X184100390Y-78709523D01*
X184100390Y-78709523D02*
X184138485Y-78671428D01*
X184138485Y-78671428D02*
X184214676Y-78633332D01*
X184214676Y-78633332D02*
X184328961Y-78633332D01*
X184328961Y-78633332D02*
X184405152Y-78671428D01*
X184405152Y-78671428D02*
X184443247Y-78709523D01*
X184443247Y-78709523D02*
X184481342Y-78785713D01*
X184481342Y-78785713D02*
X184481342Y-79090475D01*
X184062295Y-78366666D02*
X184062295Y-77871428D01*
X184062295Y-77871428D02*
X184367057Y-78138094D01*
X184367057Y-78138094D02*
X184367057Y-78023809D01*
X184367057Y-78023809D02*
X184405152Y-77947618D01*
X184405152Y-77947618D02*
X184443247Y-77909523D01*
X184443247Y-77909523D02*
X184519438Y-77871428D01*
X184519438Y-77871428D02*
X184709914Y-77871428D01*
X184709914Y-77871428D02*
X184786104Y-77909523D01*
X184786104Y-77909523D02*
X184824200Y-77947618D01*
X184824200Y-77947618D02*
X184862295Y-78023809D01*
X184862295Y-78023809D02*
X184862295Y-78252380D01*
X184862295Y-78252380D02*
X184824200Y-78328571D01*
X184824200Y-78328571D02*
X184786104Y-78366666D01*
X182286104Y-79108332D02*
X182324200Y-79146428D01*
X182324200Y-79146428D02*
X182362295Y-79260713D01*
X182362295Y-79260713D02*
X182362295Y-79336904D01*
X182362295Y-79336904D02*
X182324200Y-79451190D01*
X182324200Y-79451190D02*
X182248009Y-79527380D01*
X182248009Y-79527380D02*
X182171819Y-79565475D01*
X182171819Y-79565475D02*
X182019438Y-79603571D01*
X182019438Y-79603571D02*
X181905152Y-79603571D01*
X181905152Y-79603571D02*
X181752771Y-79565475D01*
X181752771Y-79565475D02*
X181676580Y-79527380D01*
X181676580Y-79527380D02*
X181600390Y-79451190D01*
X181600390Y-79451190D02*
X181562295Y-79336904D01*
X181562295Y-79336904D02*
X181562295Y-79260713D01*
X181562295Y-79260713D02*
X181600390Y-79146428D01*
X181600390Y-79146428D02*
X181638485Y-79108332D01*
X182362295Y-78346428D02*
X182362295Y-78803571D01*
X182362295Y-78574999D02*
X181562295Y-78574999D01*
X181562295Y-78574999D02*
X181676580Y-78651190D01*
X181676580Y-78651190D02*
X181752771Y-78727380D01*
X181752771Y-78727380D02*
X181790866Y-78803571D01*
X183862295Y-73133333D02*
X183862295Y-73514285D01*
X183862295Y-73514285D02*
X183062295Y-73514285D01*
X183862295Y-72447619D02*
X183862295Y-72904762D01*
X183862295Y-72676190D02*
X183062295Y-72676190D01*
X183062295Y-72676190D02*
X183176580Y-72752381D01*
X183176580Y-72752381D02*
X183252771Y-72828571D01*
X183252771Y-72828571D02*
X183290866Y-72904762D01*
D11*
X179866667Y-74863595D02*
X179600000Y-74482642D01*
X179409524Y-74863595D02*
X179409524Y-74063595D01*
X179409524Y-74063595D02*
X179714286Y-74063595D01*
X179714286Y-74063595D02*
X179790476Y-74101690D01*
X179790476Y-74101690D02*
X179828571Y-74139785D01*
X179828571Y-74139785D02*
X179866667Y-74215976D01*
X179866667Y-74215976D02*
X179866667Y-74330261D01*
X179866667Y-74330261D02*
X179828571Y-74406452D01*
X179828571Y-74406452D02*
X179790476Y-74444547D01*
X179790476Y-74444547D02*
X179714286Y-74482642D01*
X179714286Y-74482642D02*
X179409524Y-74482642D01*
X180628571Y-74863595D02*
X180171428Y-74863595D01*
X180400000Y-74863595D02*
X180400000Y-74063595D01*
X180400000Y-74063595D02*
X180323809Y-74177880D01*
X180323809Y-74177880D02*
X180247619Y-74254071D01*
X180247619Y-74254071D02*
X180171428Y-74292166D01*
D12*
X180362295Y-73133332D02*
X179981342Y-73399999D01*
X180362295Y-73590475D02*
X179562295Y-73590475D01*
X179562295Y-73590475D02*
X179562295Y-73285713D01*
X179562295Y-73285713D02*
X179600390Y-73209523D01*
X179600390Y-73209523D02*
X179638485Y-73171428D01*
X179638485Y-73171428D02*
X179714676Y-73133332D01*
X179714676Y-73133332D02*
X179828961Y-73133332D01*
X179828961Y-73133332D02*
X179905152Y-73171428D01*
X179905152Y-73171428D02*
X179943247Y-73209523D01*
X179943247Y-73209523D02*
X179981342Y-73285713D01*
X179981342Y-73285713D02*
X179981342Y-73590475D01*
X179638485Y-72828571D02*
X179600390Y-72790475D01*
X179600390Y-72790475D02*
X179562295Y-72714285D01*
X179562295Y-72714285D02*
X179562295Y-72523809D01*
X179562295Y-72523809D02*
X179600390Y-72447618D01*
X179600390Y-72447618D02*
X179638485Y-72409523D01*
X179638485Y-72409523D02*
X179714676Y-72371428D01*
X179714676Y-72371428D02*
X179790866Y-72371428D01*
X179790866Y-72371428D02*
X179905152Y-72409523D01*
X179905152Y-72409523D02*
X180362295Y-72866666D01*
X180362295Y-72866666D02*
X180362295Y-72371428D01*
X186862295Y-79399999D02*
X186062295Y-79399999D01*
X186786104Y-78561904D02*
X186824200Y-78600000D01*
X186824200Y-78600000D02*
X186862295Y-78714285D01*
X186862295Y-78714285D02*
X186862295Y-78790476D01*
X186862295Y-78790476D02*
X186824200Y-78904762D01*
X186824200Y-78904762D02*
X186748009Y-78980952D01*
X186748009Y-78980952D02*
X186671819Y-79019047D01*
X186671819Y-79019047D02*
X186519438Y-79057143D01*
X186519438Y-79057143D02*
X186405152Y-79057143D01*
X186405152Y-79057143D02*
X186252771Y-79019047D01*
X186252771Y-79019047D02*
X186176580Y-78980952D01*
X186176580Y-78980952D02*
X186100390Y-78904762D01*
X186100390Y-78904762D02*
X186062295Y-78790476D01*
X186062295Y-78790476D02*
X186062295Y-78714285D01*
X186062295Y-78714285D02*
X186100390Y-78600000D01*
X186100390Y-78600000D02*
X186138485Y-78561904D01*
X185286104Y-80478332D02*
X185324200Y-80516428D01*
X185324200Y-80516428D02*
X185362295Y-80630713D01*
X185362295Y-80630713D02*
X185362295Y-80706904D01*
X185362295Y-80706904D02*
X185324200Y-80821190D01*
X185324200Y-80821190D02*
X185248009Y-80897380D01*
X185248009Y-80897380D02*
X185171819Y-80935475D01*
X185171819Y-80935475D02*
X185019438Y-80973571D01*
X185019438Y-80973571D02*
X184905152Y-80973571D01*
X184905152Y-80973571D02*
X184752771Y-80935475D01*
X184752771Y-80935475D02*
X184676580Y-80897380D01*
X184676580Y-80897380D02*
X184600390Y-80821190D01*
X184600390Y-80821190D02*
X184562295Y-80706904D01*
X184562295Y-80706904D02*
X184562295Y-80630713D01*
X184562295Y-80630713D02*
X184600390Y-80516428D01*
X184600390Y-80516428D02*
X184638485Y-80478332D01*
X184638485Y-80173571D02*
X184600390Y-80135475D01*
X184600390Y-80135475D02*
X184562295Y-80059285D01*
X184562295Y-80059285D02*
X184562295Y-79868809D01*
X184562295Y-79868809D02*
X184600390Y-79792618D01*
X184600390Y-79792618D02*
X184638485Y-79754523D01*
X184638485Y-79754523D02*
X184714676Y-79716428D01*
X184714676Y-79716428D02*
X184790866Y-79716428D01*
X184790866Y-79716428D02*
X184905152Y-79754523D01*
X184905152Y-79754523D02*
X185362295Y-80211666D01*
X185362295Y-80211666D02*
X185362295Y-79716428D01*
X176062295Y-72909523D02*
X176862295Y-72642856D01*
X176862295Y-72642856D02*
X176062295Y-72376190D01*
X176062295Y-71957142D02*
X176062295Y-71804761D01*
X176062295Y-71804761D02*
X176100390Y-71728571D01*
X176100390Y-71728571D02*
X176176580Y-71652380D01*
X176176580Y-71652380D02*
X176328961Y-71614285D01*
X176328961Y-71614285D02*
X176595628Y-71614285D01*
X176595628Y-71614285D02*
X176748009Y-71652380D01*
X176748009Y-71652380D02*
X176824200Y-71728571D01*
X176824200Y-71728571D02*
X176862295Y-71804761D01*
X176862295Y-71804761D02*
X176862295Y-71957142D01*
X176862295Y-71957142D02*
X176824200Y-72033333D01*
X176824200Y-72033333D02*
X176748009Y-72109523D01*
X176748009Y-72109523D02*
X176595628Y-72147619D01*
X176595628Y-72147619D02*
X176328961Y-72147619D01*
X176328961Y-72147619D02*
X176176580Y-72109523D01*
X176176580Y-72109523D02*
X176100390Y-72033333D01*
X176100390Y-72033333D02*
X176062295Y-71957142D01*
X176062295Y-71271428D02*
X176709914Y-71271428D01*
X176709914Y-71271428D02*
X176786104Y-71233333D01*
X176786104Y-71233333D02*
X176824200Y-71195238D01*
X176824200Y-71195238D02*
X176862295Y-71119047D01*
X176862295Y-71119047D02*
X176862295Y-70966666D01*
X176862295Y-70966666D02*
X176824200Y-70890476D01*
X176824200Y-70890476D02*
X176786104Y-70852381D01*
X176786104Y-70852381D02*
X176709914Y-70814285D01*
X176709914Y-70814285D02*
X176062295Y-70814285D01*
X176062295Y-70547619D02*
X176062295Y-70090476D01*
X176862295Y-70319048D02*
X176062295Y-70319048D01*
D13*
%TO.C,VIN*%
X173170000Y-78005000D02*
X173170000Y-75405000D01*
X175830000Y-75405000D02*
X173170000Y-75405000D01*
X175830000Y-78005000D02*
X173170000Y-78005000D01*
X175830000Y-78005000D02*
X175830000Y-75405000D01*
X175830000Y-79275000D02*
X175830000Y-80605000D01*
X175830000Y-80605000D02*
X174500000Y-80605000D01*
%TO.C,C1*%
X178140000Y-79711252D02*
X178140000Y-78288748D01*
X180860000Y-79711252D02*
X180860000Y-78288748D01*
%TO.C,L1*%
X184340000Y-68990000D02*
X184340000Y-76010000D01*
X184340000Y-68990000D02*
X186790000Y-68990000D01*
X184340000Y-76010000D02*
X186790000Y-76010000D01*
X191660000Y-68990000D02*
X189210000Y-68990000D01*
X191660000Y-68990000D02*
X191660000Y-76010000D01*
X191660000Y-76010000D02*
X189210000Y-76010000D01*
D14*
%TO.C,IC*%
X187400000Y-78300000D02*
X187400000Y-79700000D01*
X190600000Y-78300000D02*
X190600000Y-79700000D01*
D15*
X190350000Y-76750000D02*
G75*
G02*
X190150000Y-76750000I-100000J0D01*
G01*
X190150000Y-76750000D02*
G75*
G02*
X190350000Y-76750000I100000J0D01*
G01*
D13*
%TO.C,VOUT*%
X173170000Y-69130000D02*
X174500000Y-69130000D01*
X173170000Y-70460000D02*
X173170000Y-69130000D01*
X173170000Y-71730000D02*
X173170000Y-74330000D01*
X173170000Y-71730000D02*
X175830000Y-71730000D01*
X173170000Y-74330000D02*
X175830000Y-74330000D01*
X175830000Y-71730000D02*
X175830000Y-74330000D01*
%TD*%
M02*
